<svg width="791" height="47" viewBox="0 0 791 47" fill="none" xmlns="http://www.w3.org/2000/svg">
<path d="M779.751 13.9725H789.151C789.578 13.9725 789.924 14.1191 790.191 14.4125C790.484 14.7058 790.631 15.0525 790.631 15.4525C790.631 15.8791 790.484 16.2391 790.191 16.5325C789.924 16.7991 789.578 16.9325 789.151 16.9325H779.751C779.351 16.9325 779.004 16.7858 778.711 16.4925C778.418 16.1991 778.271 15.8391 778.271 15.4125C778.271 15.0125 778.418 14.6791 778.711 14.4125C779.004 14.1191 779.351 13.9725 779.751 13.9725ZM783.951 8.53247C784.404 8.53247 784.778 8.69247 785.071 9.01247C785.364 9.3058 785.511 9.67914 785.511 10.1325V29.4525C785.511 30.0925 785.604 30.5725 785.791 30.8925C785.978 31.2125 786.218 31.4391 786.511 31.5725C786.831 31.6791 787.138 31.7325 787.431 31.7325C787.698 31.7325 787.924 31.6925 788.111 31.6125C788.324 31.5058 788.564 31.4525 788.831 31.4525C789.098 31.4525 789.338 31.5858 789.551 31.8525C789.791 32.0925 789.911 32.4125 789.911 32.8125C789.911 33.2925 789.631 33.7058 789.071 34.0525C788.511 34.3725 787.884 34.5325 787.191 34.5325C786.818 34.5325 786.351 34.5058 785.791 34.4525C785.258 34.3991 784.724 34.2258 784.191 33.9325C783.658 33.6391 783.204 33.1591 782.831 32.4925C782.484 31.7991 782.311 30.8391 782.311 29.6125V10.1325C782.311 9.67914 782.471 9.3058 782.791 9.01247C783.111 8.69247 783.498 8.53247 783.951 8.53247Z" fill="#383838"/>
<path d="M767.472 13.3325C769.285 13.3325 770.712 13.7059 771.752 14.4525C772.792 15.1992 773.525 16.1992 773.952 17.4525C774.405 18.7059 774.632 20.1059 774.632 21.6525V32.8925C774.632 33.3459 774.472 33.7325 774.152 34.0525C773.859 34.3725 773.485 34.5325 773.032 34.5325C772.579 34.5325 772.192 34.3725 771.872 34.0525C771.579 33.7325 771.432 33.3459 771.432 32.8925V21.7325C771.432 20.7192 771.272 19.8125 770.952 19.0125C770.659 18.1859 770.152 17.5325 769.432 17.0525C768.739 16.5459 767.779 16.2925 766.552 16.2925C765.432 16.2925 764.405 16.5459 763.472 17.0525C762.539 17.5325 761.792 18.1859 761.232 19.0125C760.672 19.8125 760.392 20.7192 760.392 21.7325V32.8925C760.392 33.3459 760.232 33.7325 759.912 34.0525C759.619 34.3725 759.245 34.5325 758.792 34.5325C758.339 34.5325 757.952 34.3725 757.632 34.0525C757.339 33.7325 757.192 33.3459 757.192 32.8925V15.4525C757.192 14.9992 757.339 14.6259 757.632 14.3325C757.952 14.0125 758.339 13.8525 758.792 13.8525C759.272 13.8525 759.659 14.0125 759.952 14.3325C760.245 14.6259 760.392 14.9992 760.392 15.4525V18.2925L759.592 19.1725C759.725 18.4792 760.032 17.7859 760.512 17.0925C760.992 16.3725 761.592 15.7325 762.312 15.1725C763.032 14.6125 763.832 14.1725 764.712 13.8525C765.592 13.5059 766.512 13.3325 767.472 13.3325Z" fill="#383838"/>
<path d="M743.822 34.9325C741.689 34.9325 739.822 34.4792 738.222 33.5725C736.622 32.6659 735.369 31.4259 734.462 29.8525C733.582 28.2525 733.142 26.4125 733.142 24.3325C733.142 22.0125 733.595 20.0392 734.502 18.4125C735.435 16.7592 736.635 15.5059 738.102 14.6525C739.595 13.7725 741.169 13.3325 742.822 13.3325C744.049 13.3325 745.235 13.5592 746.382 14.0125C747.529 14.4659 748.542 15.1325 749.422 16.0125C750.302 16.8659 751.009 17.9059 751.542 19.1325C752.075 20.3325 752.355 21.6792 752.382 23.1725C752.382 23.5992 752.222 23.9592 751.902 24.2525C751.582 24.5459 751.209 24.6925 750.782 24.6925H734.982L734.262 21.9325H749.662L749.022 22.4925V21.6125C748.915 20.5192 748.542 19.5859 747.902 18.8125C747.289 18.0125 746.529 17.3992 745.622 16.9725C744.742 16.5459 743.809 16.3325 742.822 16.3325C742.022 16.3325 741.222 16.4792 740.422 16.7725C739.649 17.0392 738.942 17.4925 738.302 18.1325C737.689 18.7459 737.182 19.5459 736.782 20.5325C736.409 21.5192 736.222 22.7059 736.222 24.0925C736.222 25.6392 736.529 26.9992 737.142 28.1725C737.782 29.3459 738.662 30.2792 739.782 30.9725C740.902 31.6392 742.209 31.9725 743.702 31.9725C744.635 31.9725 745.449 31.8525 746.142 31.6125C746.835 31.3725 747.435 31.0792 747.942 30.7325C748.449 30.3592 748.875 29.9859 749.222 29.6125C749.569 29.3725 749.902 29.2525 750.222 29.2525C750.622 29.2525 750.942 29.3859 751.182 29.6525C751.449 29.9192 751.582 30.2392 751.582 30.6125C751.582 31.0659 751.369 31.4659 750.942 31.8125C750.195 32.6392 749.182 33.3725 747.902 34.0125C746.622 34.6259 745.262 34.9325 743.822 34.9325Z" fill="#383838"/>
<path d="M728.446 32.8924C728.446 33.3457 728.286 33.7324 727.966 34.0524C727.646 34.3724 727.259 34.5324 726.806 34.5324C726.353 34.5324 725.979 34.3724 725.686 34.0524C725.393 33.7324 725.246 33.3457 725.246 32.8924V6.53237C725.246 6.07904 725.393 5.70571 725.686 5.41237C726.006 5.09237 726.393 4.93237 726.846 4.93237C727.326 4.93237 727.713 5.09237 728.006 5.41237C728.299 5.70571 728.446 6.07904 728.446 6.53237V32.8924Z" fill="#383838"/>
<path d="M717.396 13.6525C717.849 13.6525 718.222 13.8125 718.516 14.1325C718.836 14.4259 718.996 14.7992 718.996 15.2525V32.8925C718.996 33.3459 718.836 33.7325 718.516 34.0525C718.222 34.3725 717.849 34.5325 717.396 34.5325C716.916 34.5325 716.529 34.3725 716.236 34.0525C715.943 33.7325 715.796 33.3459 715.796 32.8925V29.0925L716.556 29.0125C716.556 29.5992 716.356 30.2392 715.956 30.9325C715.556 31.6259 715.009 32.2792 714.316 32.8925C713.622 33.4792 712.796 33.9725 711.836 34.3725C710.902 34.7459 709.889 34.9325 708.796 34.9325C706.983 34.9325 705.356 34.4659 703.916 33.5325C702.476 32.5725 701.329 31.2792 700.476 29.6525C699.649 28.0259 699.236 26.1725 699.236 24.0925C699.236 21.9859 699.649 20.1325 700.476 18.5325C701.329 16.9059 702.476 15.6392 703.916 14.7325C705.356 13.7992 706.956 13.3325 708.716 13.3325C709.862 13.3325 710.929 13.5192 711.916 13.8925C712.902 14.2659 713.756 14.7725 714.476 15.4125C715.222 16.0525 715.796 16.7592 716.196 17.5325C716.622 18.3059 716.836 19.0792 716.836 19.8525L715.796 19.6125V15.2525C715.796 14.7992 715.943 14.4259 716.236 14.1325C716.529 13.8125 716.916 13.6525 717.396 13.6525ZM709.156 31.9725C710.489 31.9725 711.663 31.6259 712.676 30.9325C713.716 30.2392 714.516 29.3059 715.076 28.1325C715.662 26.9325 715.956 25.5859 715.956 24.0925C715.956 22.6259 715.662 21.3059 715.076 20.1325C714.516 18.9325 713.716 17.9992 712.676 17.3325C711.663 16.6392 710.489 16.2925 709.156 16.2925C707.849 16.2925 706.676 16.6259 705.636 17.2925C704.622 17.9592 703.823 18.8792 703.236 20.0525C702.649 21.2259 702.356 22.5725 702.356 24.0925C702.356 25.5859 702.636 26.9325 703.196 28.1325C703.782 29.3059 704.582 30.2392 705.596 30.9325C706.636 31.6259 707.822 31.9725 709.156 31.9725Z" fill="#383838"/>
<path d="M689.127 34.5325C688.647 34.5325 688.247 34.3725 687.927 34.0525C687.607 33.7325 687.447 33.3458 687.447 32.8925V8.17247H690.847V32.8925C690.847 33.3458 690.687 33.7325 690.367 34.0525C690.047 34.3725 689.634 34.5325 689.127 34.5325ZM679.847 9.57247C679.394 9.57247 679.007 9.43914 678.687 9.17247C678.394 8.87914 678.247 8.5058 678.247 8.05247C678.247 7.59914 678.394 7.23914 678.687 6.97247C679.007 6.67914 679.394 6.53247 679.847 6.53247H698.447C698.9 6.53247 699.287 6.67914 699.607 6.97247C699.927 7.23914 700.087 7.59914 700.087 8.05247C700.087 8.53247 699.927 8.9058 699.607 9.17247C699.287 9.43914 698.9 9.57247 698.447 9.57247H679.847Z" fill="#383838"/>
<path d="M662.665 32.8924C662.665 33.3457 662.505 33.7324 662.185 34.0524C661.865 34.3724 661.478 34.5324 661.025 34.5324C660.572 34.5324 660.198 34.3724 659.905 34.0524C659.611 33.7324 659.465 33.3457 659.465 32.8924V6.53237C659.465 6.07904 659.611 5.70571 659.905 5.41237C660.225 5.09237 660.611 4.93237 661.065 4.93237C661.545 4.93237 661.931 5.09237 662.225 5.41237C662.518 5.70571 662.665 6.07904 662.665 6.53237V32.8924Z" fill="#383838"/>
<path d="M651.615 13.6525C652.068 13.6525 652.441 13.8125 652.735 14.1325C653.055 14.4259 653.215 14.7992 653.215 15.2525V32.8925C653.215 33.3459 653.055 33.7325 652.735 34.0525C652.441 34.3725 652.068 34.5325 651.615 34.5325C651.135 34.5325 650.748 34.3725 650.455 34.0525C650.161 33.7325 650.015 33.3459 650.015 32.8925V29.0925L650.775 29.0125C650.775 29.5992 650.575 30.2392 650.175 30.9325C649.775 31.6259 649.228 32.2792 648.535 32.8925C647.841 33.4792 647.015 33.9725 646.055 34.3725C645.121 34.7459 644.108 34.9325 643.015 34.9325C641.201 34.9325 639.575 34.4659 638.135 33.5325C636.695 32.5725 635.548 31.2792 634.695 29.6525C633.868 28.0259 633.455 26.1725 633.455 24.0925C633.455 21.9859 633.868 20.1325 634.695 18.5325C635.548 16.9059 636.695 15.6392 638.135 14.7325C639.575 13.7992 641.175 13.3325 642.935 13.3325C644.081 13.3325 645.148 13.5192 646.135 13.8925C647.121 14.2659 647.975 14.7725 648.695 15.4125C649.441 16.0525 650.015 16.7592 650.415 17.5325C650.841 18.3059 651.055 19.0792 651.055 19.8525L650.015 19.6125V15.2525C650.015 14.7992 650.161 14.4259 650.455 14.1325C650.748 13.8125 651.135 13.6525 651.615 13.6525ZM643.375 31.9725C644.708 31.9725 645.881 31.6259 646.895 30.9325C647.935 30.2392 648.735 29.3059 649.295 28.1325C649.881 26.9325 650.175 25.5859 650.175 24.0925C650.175 22.6259 649.881 21.3059 649.295 20.1325C648.735 18.9325 647.935 17.9992 646.895 17.3325C645.881 16.6392 644.708 16.2925 643.375 16.2925C642.068 16.2925 640.895 16.6259 639.855 17.2925C638.841 17.9592 638.041 18.8792 637.455 20.0525C636.868 21.2259 636.575 22.5725 636.575 24.0925C636.575 25.5859 636.855 26.9325 637.415 28.1325C638.001 29.3059 638.801 30.2392 639.815 30.9325C640.855 31.6259 642.041 31.9725 643.375 31.9725Z" fill="#383838"/>
<path d="M623.032 13.3325C624.392 13.3325 625.619 13.4792 626.712 13.7725C627.806 14.0659 628.672 14.4659 629.312 14.9725C629.952 15.4792 630.272 16.0525 630.272 16.6925C630.272 17.0392 630.152 17.3725 629.912 17.6925C629.672 18.0125 629.352 18.1725 628.952 18.1725C628.579 18.1725 628.272 18.1059 628.032 17.9725C627.819 17.8392 627.606 17.6659 627.392 17.4525C627.206 17.2392 626.939 17.0525 626.592 16.8925C626.272 16.7059 625.806 16.5592 625.192 16.4525C624.579 16.3459 623.966 16.2925 623.352 16.2925C621.886 16.2925 620.592 16.6392 619.472 17.3325C618.379 18.0259 617.512 18.9592 616.872 20.1325C616.232 21.3059 615.912 22.6392 615.912 24.1325C615.912 25.6259 616.219 26.9592 616.832 28.1325C617.446 29.3059 618.299 30.2392 619.392 30.9325C620.486 31.6259 621.752 31.9725 623.192 31.9725C624.126 31.9725 624.872 31.8925 625.432 31.7325C625.992 31.5725 626.459 31.3859 626.832 31.1725C627.312 30.9059 627.672 30.6392 627.912 30.3725C628.179 30.1059 628.526 29.9725 628.952 29.9725C629.406 29.9725 629.752 30.1192 629.992 30.4125C630.259 30.7059 630.392 31.0659 630.392 31.4925C630.392 31.9725 630.059 32.4792 629.392 33.0125C628.726 33.5459 627.819 33.9992 626.672 34.3725C625.552 34.7459 624.272 34.9325 622.832 34.9325C620.806 34.9325 619.032 34.4659 617.512 33.5325C615.992 32.5725 614.806 31.2792 613.952 29.6525C613.126 27.9992 612.712 26.1592 612.712 24.1325C612.712 22.1059 613.139 20.2792 613.992 18.6525C614.872 17.0259 616.086 15.7325 617.632 14.7725C619.179 13.8125 620.979 13.3325 623.032 13.3325Z" fill="#383838"/>
<path d="M609.019 24.1325C609.019 26.2125 608.553 28.0659 607.619 29.6925C606.713 31.3192 605.473 32.5992 603.899 33.5325C602.353 34.4659 600.606 34.9325 598.659 34.9325C596.713 34.9325 594.953 34.4659 593.379 33.5325C591.806 32.5992 590.553 31.3192 589.619 29.6925C588.713 28.0659 588.259 26.2125 588.259 24.1325C588.259 22.0525 588.713 20.1992 589.619 18.5725C590.553 16.9459 591.806 15.6659 593.379 14.7325C594.953 13.7992 596.713 13.3325 598.659 13.3325C600.606 13.3325 602.353 13.7992 603.899 14.7325C605.473 15.6659 606.713 16.9459 607.619 18.5725C608.553 20.1992 609.019 22.0525 609.019 24.1325ZM605.819 24.1325C605.819 22.5859 605.499 21.2259 604.859 20.0525C604.246 18.8792 603.393 17.9592 602.299 17.2925C601.233 16.6259 600.019 16.2925 598.659 16.2925C597.299 16.2925 596.073 16.6259 594.979 17.2925C593.913 17.9592 593.059 18.8792 592.419 20.0525C591.779 21.2259 591.459 22.5859 591.459 24.1325C591.459 25.6525 591.779 26.9992 592.419 28.1725C593.059 29.3459 593.913 30.2792 594.979 30.9725C596.073 31.6392 597.299 31.9725 598.659 31.9725C600.019 31.9725 601.233 31.6392 602.299 30.9725C603.393 30.2792 604.246 29.3459 604.859 28.1725C605.499 26.9992 605.819 25.6525 605.819 24.1325Z" fill="#383838"/>
<path d="M583.7 31.3725C584.153 31.3725 584.54 31.5325 584.86 31.8525C585.18 32.1458 585.34 32.5191 585.34 32.9725C585.34 33.4258 585.18 33.7991 584.86 34.0925C584.54 34.3858 584.153 34.5325 583.7 34.5325H569.86C569.406 34.5325 569.02 34.3725 568.7 34.0525C568.406 33.7325 568.26 33.3458 568.26 32.8925V8.13247C568.26 7.67914 568.42 7.3058 568.74 7.01247C569.06 6.69247 569.46 6.53247 569.94 6.53247C570.393 6.53247 570.78 6.69247 571.1 7.01247C571.42 7.3058 571.58 7.67914 571.58 8.13247V32.0925L570.78 31.3725H583.7Z" fill="#383838"/>
<path d="M549.156 13.5325C549.61 13.5325 549.983 13.6925 550.276 14.0125C550.596 14.3058 550.756 14.6791 550.756 15.1325V32.5725C550.756 34.8125 550.316 36.6658 549.436 38.1325C548.556 39.6258 547.37 40.7325 545.876 41.4525C544.41 42.1725 542.743 42.5325 540.876 42.5325C539.836 42.5325 538.836 42.4258 537.876 42.2125C536.916 41.9991 536.13 41.7191 535.516 41.3725C535.01 41.1325 534.65 40.8258 534.436 40.4525C534.25 40.1058 534.223 39.7325 534.356 39.3325C534.543 38.8525 534.81 38.5191 535.156 38.3325C535.53 38.1458 535.916 38.1458 536.316 38.3325C536.743 38.5191 537.356 38.7725 538.156 39.0925C538.983 39.4391 539.903 39.6125 540.916 39.6125C542.303 39.6125 543.49 39.3458 544.476 38.8125C545.463 38.2791 546.223 37.4925 546.756 36.4525C547.29 35.4391 547.556 34.1725 547.556 32.6525V29.8125L548.036 30.8125C547.61 31.6391 547.036 32.3591 546.316 32.9725C545.596 33.5858 544.77 34.0658 543.836 34.4125C542.903 34.7591 541.876 34.9325 540.756 34.9325C539.236 34.9325 537.943 34.6125 536.876 33.9725C535.836 33.3058 535.036 32.3991 534.476 31.2525C533.943 30.0791 533.676 28.7325 533.676 27.2125V15.1325C533.676 14.6791 533.823 14.3058 534.116 14.0125C534.436 13.6925 534.823 13.5325 535.276 13.5325C535.756 13.5325 536.143 13.6925 536.436 14.0125C536.73 14.3058 536.876 14.6791 536.876 15.1325V26.4925C536.876 28.3058 537.276 29.6791 538.076 30.6125C538.876 31.5191 540.116 31.9725 541.796 31.9725C542.863 31.9725 543.823 31.7325 544.676 31.2525C545.556 30.7725 546.25 30.1191 546.756 29.2925C547.29 28.4391 547.556 27.5058 547.556 26.4925V15.1325C547.556 14.6791 547.703 14.3058 547.996 14.0125C548.29 13.6925 548.676 13.5325 549.156 13.5325Z" fill="#383838"/>
<path d="M519.306 13.3324C521.119 13.3324 522.746 13.799 524.186 14.7324C525.626 15.639 526.759 16.8924 527.586 18.4924C528.439 20.0924 528.866 21.9457 528.866 24.0524C528.866 26.159 528.439 28.0257 527.586 29.6524C526.759 31.279 525.626 32.5724 524.186 33.5324C522.773 34.4657 521.173 34.9324 519.386 34.9324C518.399 34.9324 517.466 34.7857 516.586 34.4924C515.733 34.1724 514.946 33.759 514.226 33.2524C513.533 32.719 512.946 32.1457 512.466 31.5324C511.986 30.8924 511.639 30.2657 511.426 29.6524L512.306 29.0924V33.0924C512.306 33.5457 512.159 33.9324 511.866 34.2524C511.573 34.5724 511.186 34.7324 510.706 34.7324C510.253 34.7324 509.866 34.5857 509.546 34.2924C509.253 33.9724 509.106 33.5724 509.106 33.0924V6.57237C509.106 6.11904 509.253 5.73237 509.546 5.41237C509.866 5.09237 510.253 4.93237 510.706 4.93237C511.186 4.93237 511.573 5.09237 511.866 5.41237C512.159 5.73237 512.306 6.11904 512.306 6.57237V18.8924L511.706 18.5724C511.893 17.9057 512.213 17.2657 512.666 16.6524C513.146 16.0124 513.719 15.4524 514.386 14.9724C515.079 14.4657 515.839 14.0657 516.666 13.7724C517.519 13.479 518.399 13.3324 519.306 13.3324ZM518.946 16.2924C517.613 16.2924 516.426 16.6257 515.386 17.2924C514.373 17.959 513.573 18.879 512.986 20.0524C512.426 21.2257 512.146 22.559 512.146 24.0524C512.146 25.5457 512.426 26.8924 512.986 28.0924C513.573 29.2924 514.373 30.239 515.386 30.9324C516.426 31.6257 517.613 31.9724 518.946 31.9724C520.279 31.9724 521.453 31.6257 522.466 30.9324C523.479 30.239 524.279 29.2924 524.866 28.0924C525.453 26.8924 525.746 25.5457 525.746 24.0524C525.746 22.559 525.453 21.2257 524.866 20.0524C524.279 18.879 523.479 17.959 522.466 17.2924C521.453 16.6257 520.279 16.2924 518.946 16.2924Z" fill="#383838"/>
<path d="M482.759 13.9725H492.159C492.585 13.9725 492.932 14.1191 493.199 14.4125C493.492 14.7058 493.639 15.0525 493.639 15.4525C493.639 15.8791 493.492 16.2391 493.199 16.5325C492.932 16.7991 492.585 16.9325 492.159 16.9325H482.759C482.359 16.9325 482.012 16.7858 481.719 16.4925C481.425 16.1991 481.279 15.8391 481.279 15.4125C481.279 15.0125 481.425 14.6791 481.719 14.4125C482.012 14.1191 482.359 13.9725 482.759 13.9725ZM486.959 8.53247C487.412 8.53247 487.785 8.69247 488.079 9.01247C488.372 9.3058 488.519 9.67914 488.519 10.1325V29.4525C488.519 30.0925 488.612 30.5725 488.799 30.8925C488.985 31.2125 489.225 31.4391 489.519 31.5725C489.839 31.6791 490.145 31.7325 490.439 31.7325C490.705 31.7325 490.932 31.6925 491.119 31.6125C491.332 31.5058 491.572 31.4525 491.839 31.4525C492.105 31.4525 492.345 31.5858 492.559 31.8525C492.799 32.0925 492.919 32.4125 492.919 32.8125C492.919 33.2925 492.639 33.7058 492.079 34.0525C491.519 34.3725 490.892 34.5325 490.199 34.5325C489.825 34.5325 489.359 34.5058 488.799 34.4525C488.265 34.3991 487.732 34.2258 487.199 33.9325C486.665 33.6391 486.212 33.1591 485.839 32.4925C485.492 31.7991 485.319 30.8391 485.319 29.6125V10.1325C485.319 9.67914 485.479 9.3058 485.799 9.01247C486.119 8.69247 486.505 8.53247 486.959 8.53247Z" fill="#383838"/>
<path d="M477.47 32.8924C477.47 33.3457 477.31 33.7324 476.99 34.0524C476.67 34.3724 476.283 34.5324 475.83 34.5324C475.376 34.5324 475.003 34.3724 474.71 34.0524C474.416 33.7324 474.27 33.3457 474.27 32.8924V6.53237C474.27 6.07904 474.416 5.70571 474.71 5.41237C475.03 5.09237 475.416 4.93237 475.87 4.93237C476.35 4.93237 476.736 5.09237 477.03 5.41237C477.323 5.70571 477.47 6.07904 477.47 6.53237V32.8924Z" fill="#383838"/>
<path d="M468.202 32.8925C468.202 33.3458 468.042 33.7325 467.722 34.0525C467.428 34.3725 467.055 34.5325 466.602 34.5325C466.122 34.5325 465.735 34.3725 465.442 34.0525C465.148 33.7325 465.002 33.3458 465.002 32.8925V15.1325C465.002 14.6791 465.148 14.3058 465.442 14.0125C465.762 13.6925 466.148 13.5324 466.602 13.5324C467.055 13.5324 467.428 13.6925 467.722 14.0125C468.042 14.3058 468.202 14.6791 468.202 15.1325V32.8925ZM466.602 10.8525C465.935 10.8525 465.442 10.7191 465.122 10.4524C464.802 10.1858 464.642 9.77245 464.642 9.21245V8.65245C464.642 8.09245 464.815 7.67912 465.162 7.41245C465.508 7.14578 466.002 7.01245 466.642 7.01245C467.282 7.01245 467.762 7.14578 468.082 7.41245C468.402 7.67912 468.562 8.09245 468.562 8.65245V9.21245C468.562 9.77245 468.388 10.1858 468.042 10.4524C467.722 10.7191 467.242 10.8525 466.602 10.8525Z" fill="#383838"/>
<path d="M457.594 13.8525C458.074 13.8525 458.46 14.0125 458.754 14.3325C459.047 14.6259 459.194 14.9992 459.194 15.4525V26.3725C459.194 29.0659 458.434 31.1592 456.914 32.6525C455.42 34.1192 453.327 34.8525 450.634 34.8525C447.967 34.8525 445.874 34.1192 444.354 32.6525C442.86 31.1592 442.114 29.0659 442.114 26.3725V15.4525C442.114 14.9992 442.26 14.6259 442.554 14.3325C442.874 14.0125 443.26 13.8525 443.714 13.8525C444.194 13.8525 444.58 14.0125 444.874 14.3325C445.167 14.6259 445.314 14.9992 445.314 15.4525V26.3725C445.314 28.1859 445.78 29.5592 446.714 30.4925C447.647 31.4259 448.954 31.8925 450.634 31.8925C452.367 31.8925 453.687 31.4259 454.594 30.4925C455.527 29.5592 455.994 28.1859 455.994 26.3725V15.4525C455.994 14.9992 456.14 14.6259 456.434 14.3325C456.754 14.0125 457.14 13.8525 457.594 13.8525Z" fill="#383838"/>
<path d="M428.581 6.53247C430.927 6.53247 432.727 7.1458 433.981 8.37247C435.261 9.57247 435.901 11.2791 435.901 13.4925C435.901 14.6658 435.634 15.7458 435.101 16.7325C434.567 17.7191 433.781 18.5058 432.741 19.0925C431.727 19.6791 430.474 19.9991 428.981 20.0525L428.901 18.9325C429.834 18.9325 430.794 19.0658 431.781 19.3325C432.767 19.5991 433.674 20.0258 434.501 20.6125C435.354 21.1991 436.034 21.9725 436.541 22.9325C437.074 23.8925 437.341 25.0791 437.341 26.4925C437.341 28.0125 437.087 29.2925 436.581 30.3325C436.074 31.3458 435.394 32.1725 434.541 32.8125C433.714 33.4258 432.781 33.8658 431.741 34.1325C430.727 34.3991 429.701 34.5325 428.661 34.5325H418.141C417.687 34.5325 417.301 34.3725 416.981 34.0525C416.687 33.7325 416.541 33.3458 416.541 32.8925V8.13247C416.541 7.67914 416.687 7.3058 416.981 7.01247C417.301 6.69247 417.687 6.53247 418.141 6.53247H428.581ZM428.101 9.69247H419.501L419.981 8.97247V18.9325L419.541 18.4125H428.181C429.354 18.4125 430.354 18.0391 431.181 17.2925C432.034 16.5191 432.461 15.3858 432.461 13.8925C432.461 12.5591 432.074 11.5325 431.301 10.8125C430.527 10.0658 429.461 9.69247 428.101 9.69247ZM428.421 21.6125H419.701L419.981 21.3325V31.7725L419.661 31.4125H428.541C430.114 31.4125 431.394 31.0125 432.381 30.2125C433.394 29.4125 433.901 28.1725 433.901 26.4925C433.901 25.1858 433.634 24.1858 433.101 23.4925C432.567 22.7725 431.874 22.2791 431.021 22.0125C430.194 21.7458 429.327 21.6125 428.421 21.6125Z" fill="#383838"/>
<path d="M400.297 34.6125C400.297 35.3858 400.07 36.1458 399.617 36.8925C399.19 37.6658 398.644 38.2925 397.977 38.7725C397.31 39.2792 396.63 39.5325 395.937 39.5325C395.697 39.5325 395.457 39.4391 395.217 39.2525C394.977 39.0925 394.857 38.7991 394.857 38.3725C394.857 37.9191 395.004 37.6525 395.297 37.5725C395.59 37.4925 395.91 37.3725 396.257 37.2125C396.657 36.9991 396.964 36.7325 397.177 36.4125C397.417 36.1191 397.537 35.7725 397.537 35.3725C397.537 35.0525 397.417 34.7858 397.177 34.5725C396.964 34.3858 396.697 34.2925 396.377 34.2925C396.19 34.2925 395.99 34.3191 395.777 34.3725C395.59 34.4258 395.43 34.5058 395.297 34.6125C395.11 34.4792 394.95 34.3191 394.817 34.1325C394.684 33.9458 394.617 33.7058 394.617 33.4125C394.644 32.8258 394.937 32.3325 395.497 31.9325C396.057 31.5058 396.697 31.2925 397.417 31.2925C398.27 31.2925 398.964 31.6125 399.497 32.2525C400.03 32.8925 400.297 33.6792 400.297 34.6125Z" fill="#383838"/>
<path d="M383.168 13.5324C384.928 13.5324 386.315 13.919 387.328 14.6924C388.368 15.439 389.102 16.4524 389.528 17.7324C389.982 18.9857 390.208 20.3857 390.208 21.9324V32.8924C390.208 33.3457 390.048 33.7324 389.728 34.0524C389.435 34.3724 389.062 34.5324 388.608 34.5324C388.155 34.5324 387.768 34.3724 387.448 34.0524C387.155 33.7324 387.008 33.3457 387.008 32.8924V21.9324C387.008 20.919 386.862 20.0124 386.568 19.2124C386.275 18.3857 385.782 17.7324 385.088 17.2524C384.422 16.7457 383.502 16.4924 382.328 16.4924C381.235 16.4924 380.235 16.7457 379.328 17.2524C378.422 17.7324 377.702 18.3857 377.168 19.2124C376.635 20.0124 376.368 20.919 376.368 21.9324V32.8924C376.368 33.3457 376.208 33.7324 375.888 34.0524C375.595 34.3724 375.222 34.5324 374.768 34.5324C374.315 34.5324 373.928 34.3724 373.608 34.0524C373.315 33.7324 373.168 33.3457 373.168 32.8924V6.53237C373.168 6.07904 373.315 5.70571 373.608 5.41237C373.928 5.09237 374.315 4.93237 374.768 4.93237C375.248 4.93237 375.635 5.09237 375.928 5.41237C376.222 5.70571 376.368 6.07904 376.368 6.53237V18.4924L375.568 19.3724C375.702 18.679 375.995 17.9857 376.448 17.2924C376.902 16.5724 377.475 15.9324 378.168 15.3724C378.862 14.8124 379.635 14.3724 380.488 14.0524C381.342 13.7057 382.235 13.5324 383.168 13.5324Z" fill="#383838"/>
<path d="M361.626 13.3325C362.986 13.3325 364.213 13.4792 365.306 13.7725C366.399 14.0659 367.266 14.4659 367.906 14.9725C368.546 15.4792 368.866 16.0525 368.866 16.6925C368.866 17.0392 368.746 17.3725 368.506 17.6925C368.266 18.0125 367.946 18.1725 367.546 18.1725C367.173 18.1725 366.866 18.1059 366.626 17.9725C366.413 17.8392 366.199 17.6659 365.986 17.4525C365.799 17.2392 365.533 17.0525 365.186 16.8925C364.866 16.7059 364.399 16.5592 363.786 16.4525C363.173 16.3459 362.56 16.2925 361.946 16.2925C360.479 16.2925 359.186 16.6392 358.066 17.3325C356.973 18.0259 356.106 18.9592 355.466 20.1325C354.826 21.3059 354.506 22.6392 354.506 24.1325C354.506 25.6259 354.813 26.9592 355.426 28.1325C356.039 29.3059 356.893 30.2392 357.986 30.9325C359.079 31.6259 360.346 31.9725 361.786 31.9725C362.719 31.9725 363.466 31.8925 364.026 31.7325C364.586 31.5725 365.053 31.3859 365.426 31.1725C365.906 30.9059 366.266 30.6392 366.506 30.3725C366.773 30.1059 367.119 29.9725 367.546 29.9725C367.999 29.9725 368.346 30.1192 368.586 30.4125C368.853 30.7059 368.986 31.0659 368.986 31.4925C368.986 31.9725 368.653 32.4792 367.986 33.0125C367.319 33.5459 366.413 33.9992 365.266 34.3725C364.146 34.7459 362.866 34.9325 361.426 34.9325C359.399 34.9325 357.626 34.4659 356.106 33.5325C354.586 32.5725 353.399 31.2792 352.546 29.6525C351.719 27.9992 351.306 26.1592 351.306 24.1325C351.306 22.1059 351.733 20.2792 352.586 18.6525C353.466 17.0259 354.679 15.7325 356.226 14.7725C357.773 13.8125 359.573 13.3325 361.626 13.3325Z" fill="#383838"/>
<path d="M339.056 34.9325C336.923 34.9325 335.056 34.4792 333.456 33.5725C331.856 32.6659 330.603 31.4259 329.696 29.8525C328.816 28.2525 328.376 26.4125 328.376 24.3325C328.376 22.0125 328.83 20.0392 329.736 18.4125C330.67 16.7592 331.87 15.5059 333.336 14.6525C334.83 13.7725 336.403 13.3325 338.056 13.3325C339.283 13.3325 340.47 13.5592 341.616 14.0125C342.763 14.4659 343.776 15.1325 344.656 16.0125C345.536 16.8659 346.243 17.9059 346.776 19.1325C347.31 20.3325 347.59 21.6792 347.616 23.1725C347.616 23.5992 347.456 23.9592 347.136 24.2525C346.816 24.5459 346.443 24.6925 346.016 24.6925H330.216L329.496 21.9325H344.896L344.256 22.4925V21.6125C344.15 20.5192 343.776 19.5859 343.136 18.8125C342.523 18.0125 341.763 17.3992 340.856 16.9725C339.976 16.5459 339.043 16.3325 338.056 16.3325C337.256 16.3325 336.456 16.4792 335.656 16.7725C334.883 17.0392 334.176 17.4925 333.536 18.1325C332.923 18.7459 332.416 19.5459 332.016 20.5325C331.643 21.5192 331.456 22.7059 331.456 24.0925C331.456 25.6392 331.763 26.9992 332.376 28.1725C333.016 29.3459 333.896 30.2792 335.016 30.9725C336.136 31.6392 337.443 31.9725 338.936 31.9725C339.87 31.9725 340.683 31.8525 341.376 31.6125C342.07 31.3725 342.67 31.0792 343.176 30.7325C343.683 30.3592 344.11 29.9859 344.456 29.6125C344.803 29.3725 345.136 29.2525 345.456 29.2525C345.856 29.2525 346.176 29.3859 346.416 29.6525C346.683 29.9192 346.816 30.2392 346.816 30.6125C346.816 31.0659 346.603 31.4659 346.176 31.8125C345.43 32.6392 344.416 33.3725 343.136 34.0125C341.856 34.6259 340.496 34.9325 339.056 34.9325Z" fill="#383838"/>
<path d="M314.36 13.9725H323.76C324.187 13.9725 324.534 14.1191 324.8 14.4125C325.094 14.7058 325.24 15.0525 325.24 15.4525C325.24 15.8791 325.094 16.2391 324.8 16.5325C324.534 16.7991 324.187 16.9325 323.76 16.9325H314.36C313.96 16.9325 313.614 16.7858 313.32 16.4925C313.027 16.1991 312.88 15.8391 312.88 15.4125C312.88 15.0125 313.027 14.6791 313.32 14.4125C313.614 14.1191 313.96 13.9725 314.36 13.9725ZM318.56 8.53247C319.014 8.53247 319.387 8.69247 319.68 9.01247C319.974 9.3058 320.12 9.67914 320.12 10.1325V29.4525C320.12 30.0925 320.214 30.5725 320.4 30.8925C320.587 31.2125 320.827 31.4391 321.12 31.5725C321.44 31.6791 321.747 31.7325 322.04 31.7325C322.307 31.7325 322.534 31.6925 322.72 31.6125C322.934 31.5058 323.174 31.4525 323.44 31.4525C323.707 31.4525 323.947 31.5858 324.16 31.8525C324.4 32.0925 324.52 32.4125 324.52 32.8125C324.52 33.2925 324.24 33.7058 323.68 34.0525C323.12 34.3725 322.494 34.5325 321.8 34.5325C321.427 34.5325 320.96 34.5058 320.4 34.4525C319.867 34.3991 319.334 34.2258 318.8 33.9325C318.267 33.6391 317.814 33.1591 317.44 32.4925C317.094 31.7991 316.92 30.8391 316.92 29.6125V10.1325C316.92 9.67914 317.08 9.3058 317.4 9.01247C317.72 8.69247 318.107 8.53247 318.56 8.53247Z" fill="#383838"/>
<path d="M302.081 13.3325C303.894 13.3325 305.321 13.7059 306.361 14.4525C307.401 15.1992 308.134 16.1992 308.561 17.4525C309.014 18.7059 309.241 20.1059 309.241 21.6525V32.8925C309.241 33.3459 309.081 33.7325 308.761 34.0525C308.468 34.3725 308.094 34.5325 307.641 34.5325C307.188 34.5325 306.801 34.3725 306.481 34.0525C306.188 33.7325 306.041 33.3459 306.041 32.8925V21.7325C306.041 20.7192 305.881 19.8125 305.561 19.0125C305.268 18.1859 304.761 17.5325 304.041 17.0525C303.348 16.5459 302.388 16.2925 301.161 16.2925C300.041 16.2925 299.014 16.5459 298.081 17.0525C297.148 17.5325 296.401 18.1859 295.841 19.0125C295.281 19.8125 295.001 20.7192 295.001 21.7325V32.8925C295.001 33.3459 294.841 33.7325 294.521 34.0525C294.228 34.3725 293.854 34.5325 293.401 34.5325C292.948 34.5325 292.561 34.3725 292.241 34.0525C291.948 33.7325 291.801 33.3459 291.801 32.8925V15.4525C291.801 14.9992 291.948 14.6259 292.241 14.3325C292.561 14.0125 292.948 13.8525 293.401 13.8525C293.881 13.8525 294.268 14.0125 294.561 14.3325C294.854 14.6259 295.001 14.9992 295.001 15.4525V18.2925L294.201 19.1725C294.334 18.4792 294.641 17.7859 295.121 17.0925C295.601 16.3725 296.201 15.7325 296.921 15.1725C297.641 14.6125 298.441 14.1725 299.321 13.8525C300.201 13.5059 301.121 13.3325 302.081 13.3325Z" fill="#383838"/>
<path d="M286.053 32.8925C286.053 33.3458 285.893 33.7325 285.573 34.0525C285.28 34.3725 284.906 34.5325 284.453 34.5325C283.973 34.5325 283.586 34.3725 283.293 34.0525C283 33.7325 282.853 33.3458 282.853 32.8925V15.1325C282.853 14.6791 283 14.3058 283.293 14.0125C283.613 13.6925 284 13.5324 284.453 13.5324C284.906 13.5324 285.28 13.6925 285.573 14.0125C285.893 14.3058 286.053 14.6791 286.053 15.1325V32.8925ZM284.453 10.8525C283.786 10.8525 283.293 10.7191 282.973 10.4524C282.653 10.1858 282.493 9.77245 282.493 9.21245V8.65245C282.493 8.09245 282.666 7.67912 283.013 7.41245C283.36 7.14578 283.853 7.01245 284.493 7.01245C285.133 7.01245 285.613 7.14578 285.933 7.41245C286.253 7.67912 286.413 8.09245 286.413 8.65245V9.21245C286.413 9.77245 286.24 10.1858 285.893 10.4524C285.573 10.7191 285.093 10.8525 284.453 10.8525Z" fill="#383838"/>
<path d="M262.556 34.5325C262.076 34.5325 261.676 34.3725 261.356 34.0525C261.062 33.7325 260.916 33.3458 260.916 32.8925V8.13247C260.916 7.67914 261.062 7.3058 261.356 7.01247C261.676 6.69247 262.062 6.53247 262.516 6.53247H276.556C277.009 6.53247 277.396 6.67914 277.716 6.97247C278.036 7.2658 278.196 7.63914 278.196 8.09247C278.196 8.51914 278.036 8.87914 277.716 9.17247C277.396 9.4658 277.009 9.61247 276.556 9.61247H263.956L264.196 9.29247V19.0925L263.996 18.6525H274.756C275.209 18.6525 275.596 18.8125 275.916 19.1325C276.236 19.4258 276.396 19.7991 276.396 20.2525C276.396 20.6525 276.236 21.0125 275.916 21.3325C275.596 21.6258 275.209 21.7725 274.756 21.7725H263.916L264.196 21.4125V32.8925C264.196 33.3458 264.036 33.7325 263.716 34.0525C263.396 34.3725 263.009 34.5325 262.556 34.5325Z" fill="#383838"/>
<path d="M236.261 13.3325C238.074 13.3325 239.501 13.7059 240.541 14.4525C241.581 15.1992 242.314 16.1992 242.741 17.4525C243.194 18.7059 243.421 20.1059 243.421 21.6525V32.8925C243.421 33.3459 243.261 33.7325 242.941 34.0525C242.647 34.3725 242.274 34.5325 241.821 34.5325C241.367 34.5325 240.981 34.3725 240.661 34.0525C240.367 33.7325 240.221 33.3459 240.221 32.8925V21.7325C240.221 20.7192 240.061 19.8125 239.741 19.0125C239.447 18.1859 238.941 17.5325 238.221 17.0525C237.527 16.5459 236.567 16.2925 235.341 16.2925C234.221 16.2925 233.194 16.5459 232.261 17.0525C231.327 17.5325 230.581 18.1859 230.021 19.0125C229.461 19.8125 229.181 20.7192 229.181 21.7325V32.8925C229.181 33.3459 229.021 33.7325 228.701 34.0525C228.407 34.3725 228.034 34.5325 227.581 34.5325C227.127 34.5325 226.741 34.3725 226.421 34.0525C226.127 33.7325 225.981 33.3459 225.981 32.8925V15.4525C225.981 14.9992 226.127 14.6259 226.421 14.3325C226.741 14.0125 227.127 13.8525 227.581 13.8525C228.061 13.8525 228.447 14.0125 228.741 14.3325C229.034 14.6259 229.181 14.9992 229.181 15.4525V18.2925L228.381 19.1725C228.514 18.4792 228.821 17.7859 229.301 17.0925C229.781 16.3725 230.381 15.7325 231.101 15.1725C231.821 14.6125 232.621 14.1725 233.501 13.8525C234.381 13.5059 235.301 13.3325 236.261 13.3325Z" fill="#383838"/>
<path d="M220.107 13.4924C220.534 13.4924 220.894 13.6391 221.187 13.9324C221.507 14.2258 221.667 14.6124 221.667 15.0924C221.667 15.1991 221.654 15.3191 221.627 15.4524C221.627 15.5591 221.601 15.6658 221.547 15.7724L215.387 33.4924C215.254 33.8391 215.027 34.1058 214.707 34.2924C214.414 34.4791 214.094 34.5591 213.747 34.5324C213.134 34.5058 212.667 34.1591 212.347 33.4924L207.307 20.8524L208.107 20.9724L203.547 33.4924C203.254 34.1591 202.787 34.5058 202.147 34.5324C201.801 34.5591 201.467 34.4791 201.147 34.2924C200.827 34.1058 200.614 33.8391 200.507 33.4924L194.227 15.7724C194.147 15.5324 194.107 15.3058 194.107 15.0924C194.107 14.6658 194.254 14.2924 194.547 13.9724C194.841 13.6524 195.241 13.4924 195.747 13.4924C196.067 13.4924 196.361 13.5724 196.627 13.7324C196.894 13.8924 197.081 14.1458 197.187 14.4924L202.587 30.2524L201.747 30.2124L206.427 18.2124C206.694 17.5458 207.187 17.2124 207.907 17.2124C208.281 17.2124 208.574 17.3058 208.787 17.4924C209.027 17.6524 209.201 17.8924 209.307 18.2124L214.187 30.2124L213.187 30.2924L218.587 14.4924C218.827 13.8258 219.334 13.4924 220.107 13.4924Z" fill="#383838"/>
<path d="M190.894 24.1325C190.894 26.2125 190.428 28.0659 189.494 29.6925C188.588 31.3192 187.348 32.5992 185.774 33.5325C184.228 34.4659 182.481 34.9325 180.534 34.9325C178.588 34.9325 176.828 34.4659 175.254 33.5325C173.681 32.5992 172.428 31.3192 171.494 29.6925C170.588 28.0659 170.134 26.2125 170.134 24.1325C170.134 22.0525 170.588 20.1992 171.494 18.5725C172.428 16.9459 173.681 15.6659 175.254 14.7325C176.828 13.7992 178.588 13.3325 180.534 13.3325C182.481 13.3325 184.228 13.7992 185.774 14.7325C187.348 15.6659 188.588 16.9459 189.494 18.5725C190.428 20.1992 190.894 22.0525 190.894 24.1325ZM187.694 24.1325C187.694 22.5859 187.374 21.2259 186.734 20.0525C186.121 18.8792 185.268 17.9592 184.174 17.2925C183.108 16.6259 181.894 16.2925 180.534 16.2925C179.174 16.2925 177.948 16.6259 176.854 17.2925C175.788 17.9592 174.934 18.8792 174.294 20.0525C173.654 21.2259 173.334 22.5859 173.334 24.1325C173.334 25.6525 173.654 26.9992 174.294 28.1725C174.934 29.3459 175.788 30.2792 176.854 30.9725C177.948 31.6392 179.174 31.9725 180.534 31.9725C181.894 31.9725 183.108 31.6392 184.174 30.9725C185.268 30.2792 186.121 29.3459 186.734 28.1725C187.374 26.9992 187.694 25.6525 187.694 24.1325Z" fill="#383838"/>
<path d="M157.698 34.5325C157.245 34.5325 156.858 34.3725 156.538 34.0525C156.245 33.7325 156.098 33.3459 156.098 32.8925V15.4525C156.098 14.9992 156.245 14.6259 156.538 14.3325C156.858 14.0125 157.245 13.8525 157.698 13.8525C158.178 13.8525 158.565 14.0125 158.858 14.3325C159.151 14.6259 159.298 14.9992 159.298 15.4525V20.7325L158.818 19.8925C158.978 19.0659 159.258 18.2659 159.658 17.4925C160.085 16.6925 160.618 15.9859 161.258 15.3725C161.898 14.7325 162.631 14.2392 163.458 13.8925C164.285 13.5192 165.191 13.3325 166.178 13.3325C166.765 13.3325 167.298 13.4792 167.778 13.7725C168.285 14.0392 168.538 14.4259 168.538 14.9325C168.538 15.4925 168.391 15.9059 168.098 16.1725C167.805 16.4392 167.471 16.5725 167.098 16.5725C166.751 16.5725 166.418 16.5059 166.098 16.3725C165.778 16.2125 165.378 16.1325 164.898 16.1325C164.231 16.1325 163.565 16.3192 162.898 16.6925C162.258 17.0392 161.658 17.5459 161.098 18.2125C160.565 18.8792 160.125 19.6392 159.778 20.4925C159.458 21.3192 159.298 22.2125 159.298 23.1725V32.8925C159.298 33.3459 159.138 33.7325 158.818 34.0525C158.525 34.3725 158.151 34.5325 157.698 34.5325Z" fill="#383838"/>
<path d="M141.605 34.9326C139.552 34.9326 137.645 34.5726 135.885 33.8526C134.152 33.1059 132.619 32.0792 131.285 30.7726C129.979 29.4659 128.952 27.9459 128.205 26.2126C127.485 24.4526 127.125 22.5592 127.125 20.5326C127.125 18.4792 127.485 16.5859 128.205 14.8526C128.952 13.0926 129.979 11.5592 131.285 10.2526C132.619 8.9459 134.152 7.93257 135.885 7.21257C137.645 6.49257 139.552 6.13257 141.605 6.13257C142.965 6.13257 144.272 6.29257 145.525 6.61257C146.805 6.9059 147.965 7.37257 149.005 8.01257C149.272 8.1459 149.459 8.33257 149.565 8.57257C149.699 8.81257 149.765 9.0659 149.765 9.33257C149.765 9.7859 149.605 10.1726 149.285 10.4926C148.992 10.8126 148.645 10.9726 148.245 10.9726C148.085 10.9726 147.925 10.9459 147.765 10.8926C147.632 10.8392 147.485 10.7859 147.325 10.7326C146.499 10.3059 145.605 9.97257 144.645 9.73257C143.685 9.4659 142.672 9.33257 141.605 9.33257C139.499 9.33257 137.605 9.8259 135.925 10.8126C134.272 11.7992 132.965 13.1326 132.005 14.8126C131.045 16.4926 130.565 18.3992 130.565 20.5326C130.565 22.6392 131.045 24.5459 132.005 26.2526C132.965 27.9326 134.272 29.2659 135.925 30.2526C137.605 31.2392 139.499 31.7326 141.605 31.7326C142.672 31.7326 143.765 31.5859 144.885 31.2926C146.032 30.9992 147.005 30.6259 147.805 30.1726L147.525 31.1326V22.6926L148.165 23.2526H142.045C141.592 23.2526 141.205 23.1059 140.885 22.8126C140.592 22.4926 140.445 22.1059 140.445 21.6526C140.445 21.1992 140.592 20.8259 140.885 20.5326C141.205 20.2126 141.592 20.0526 142.045 20.0526H149.325C149.805 20.0526 150.192 20.2126 150.485 20.5326C150.779 20.8526 150.925 21.2392 150.925 21.6926V30.9326C150.925 31.2526 150.845 31.5326 150.685 31.7726C150.552 32.0126 150.365 32.2126 150.125 32.3726C148.925 33.1459 147.592 33.7726 146.125 34.2526C144.685 34.7059 143.179 34.9326 141.605 34.9326Z" fill="#383838"/>
<path d="M113.461 23.6924C113.008 23.6924 112.621 23.5458 112.301 23.2524C112.008 22.9324 111.861 22.5324 111.861 22.0524C111.861 21.5991 112.008 21.2258 112.301 20.9324C112.621 20.6391 113.008 20.4924 113.461 20.4924H121.541C121.995 20.4924 122.368 20.6524 122.661 20.9724C122.981 21.2924 123.141 21.6791 123.141 22.1324C123.141 22.5858 122.981 22.9591 122.661 23.2524C122.368 23.5458 121.995 23.6924 121.541 23.6924H113.461Z" fill="#383838"/>
<path d="M99.2518 34.9325C97.1185 34.9325 95.2518 34.4792 93.6518 33.5725C92.0518 32.6659 90.7985 31.4259 89.8918 29.8525C89.0118 28.2525 88.5718 26.4125 88.5718 24.3325C88.5718 22.0125 89.0251 20.0392 89.9318 18.4125C90.8651 16.7592 92.0651 15.5059 93.5318 14.6525C95.0251 13.7725 96.5985 13.3325 98.2518 13.3325C99.4785 13.3325 100.665 13.5592 101.812 14.0125C102.958 14.4659 103.972 15.1325 104.852 16.0125C105.732 16.8659 106.438 17.9059 106.972 19.1325C107.505 20.3325 107.785 21.6792 107.812 23.1725C107.812 23.5992 107.652 23.9592 107.332 24.2525C107.012 24.5459 106.638 24.6925 106.212 24.6925H90.4118L89.6918 21.9325H105.092L104.452 22.4925V21.6125C104.345 20.5192 103.972 19.5859 103.332 18.8125C102.718 18.0125 101.958 17.3992 101.052 16.9725C100.172 16.5459 99.2385 16.3325 98.2518 16.3325C97.4518 16.3325 96.6518 16.4792 95.8518 16.7725C95.0785 17.0392 94.3718 17.4925 93.7318 18.1325C93.1184 18.7459 92.6118 19.5459 92.2118 20.5325C91.8385 21.5192 91.6518 22.7059 91.6518 24.0925C91.6518 25.6392 91.9585 26.9992 92.5718 28.1725C93.2118 29.3459 94.0918 30.2792 95.2118 30.9725C96.3318 31.6392 97.6384 31.9725 99.1318 31.9725C100.065 31.9725 100.878 31.8525 101.572 31.6125C102.265 31.3725 102.865 31.0792 103.372 30.7325C103.878 30.3592 104.305 29.9859 104.652 29.6125C104.998 29.3725 105.332 29.2525 105.652 29.2525C106.052 29.2525 106.372 29.3859 106.612 29.6525C106.878 29.9192 107.012 30.2392 107.012 30.6125C107.012 31.0659 106.798 31.4659 106.372 31.8125C105.625 32.6392 104.612 33.3725 103.332 34.0125C102.052 34.6259 100.692 34.9325 99.2518 34.9325Z" fill="#383838"/>
<path d="M62.931 13.5325C64.7444 13.5325 66.211 13.9991 67.331 14.9325C68.4777 15.8391 69.2377 17.1325 69.611 18.8125H69.011L69.291 18.0925C69.611 17.3458 70.1577 16.6258 70.931 15.9325C71.7044 15.2391 72.5977 14.6658 73.611 14.2125C74.6244 13.7591 75.6777 13.5325 76.771 13.5325C78.531 13.5325 79.9177 13.9191 80.931 14.6925C81.9444 15.4391 82.6644 16.4525 83.091 17.7325C83.5444 18.9858 83.771 20.3991 83.771 21.9725V32.8925C83.771 33.3458 83.611 33.7325 83.291 34.0525C82.9977 34.3725 82.6244 34.5325 82.171 34.5325C81.691 34.5325 81.3044 34.3725 81.011 34.0525C80.7177 33.7325 80.571 33.3458 80.571 32.8925V22.0525C80.571 21.0125 80.411 20.0791 80.091 19.2525C79.7977 18.3991 79.3044 17.7325 78.611 17.2525C77.9444 16.7458 77.0244 16.4925 75.851 16.4925C74.7577 16.4925 73.7577 16.7458 72.851 17.2525C71.9444 17.7325 71.2244 18.3991 70.691 19.2525C70.1577 20.0791 69.891 21.0125 69.891 22.0525V32.8925C69.891 33.3458 69.7444 33.7325 69.451 34.0525C69.1577 34.3725 68.771 34.5325 68.291 34.5325C67.8377 34.5325 67.451 34.3725 67.131 34.0525C66.8377 33.7325 66.691 33.3458 66.691 32.8925V21.9325C66.691 20.9191 66.5444 20.0125 66.251 19.2125C65.9844 18.3858 65.5177 17.7325 64.851 17.2525C64.1844 16.7458 63.2644 16.4925 62.091 16.4925C61.0244 16.4925 60.051 16.7458 59.171 17.2525C58.291 17.7325 57.5844 18.3858 57.051 19.2125C56.5177 20.0125 56.251 20.9191 56.251 21.9325V32.8925C56.251 33.3458 56.091 33.7325 55.771 34.0525C55.4777 34.3725 55.1044 34.5325 54.651 34.5325C54.1977 34.5325 53.811 34.3725 53.491 34.0525C53.1977 33.7325 53.051 33.3458 53.051 32.8925V15.4525C53.051 14.9991 53.1977 14.6258 53.491 14.3325C53.811 14.0125 54.1977 13.8525 54.651 13.8525C55.131 13.8525 55.5177 14.0125 55.811 14.3325C56.1044 14.6258 56.251 14.9991 56.251 15.4525V18.4925L55.371 19.4525C55.4777 18.7591 55.7444 18.0658 56.171 17.3725C56.6244 16.6791 57.1977 16.0391 57.891 15.4525C58.5844 14.8658 59.3577 14.3991 60.211 14.0525C61.0644 13.7058 61.971 13.5325 62.931 13.5325Z" fill="#383838"/>
<path d="M48.238 24.1325C48.238 26.2125 47.7714 28.0659 46.838 29.6925C45.9314 31.3192 44.6914 32.5992 43.118 33.5325C41.5714 34.4659 39.8247 34.9325 37.878 34.9325C35.9314 34.9325 34.1714 34.4659 32.598 33.5325C31.0247 32.5992 29.7714 31.3192 28.838 29.6925C27.9314 28.0659 27.478 26.2125 27.478 24.1325C27.478 22.0525 27.9314 20.1992 28.838 18.5725C29.7714 16.9459 31.0247 15.6659 32.598 14.7325C34.1714 13.7992 35.9314 13.3325 37.878 13.3325C39.8247 13.3325 41.5714 13.7992 43.118 14.7325C44.6914 15.6659 45.9314 16.9459 46.838 18.5725C47.7714 20.1992 48.238 22.0525 48.238 24.1325ZM45.038 24.1325C45.038 22.5859 44.718 21.2259 44.078 20.0525C43.4647 18.8792 42.6114 17.9592 41.518 17.2925C40.4514 16.6259 39.238 16.2925 37.878 16.2925C36.518 16.2925 35.2914 16.6259 34.198 17.2925C33.1314 17.9592 32.278 18.8792 31.638 20.0525C30.998 21.2259 30.678 22.5859 30.678 24.1325C30.678 25.6525 30.998 26.9992 31.638 28.1725C32.278 29.3459 33.1314 30.2792 34.198 30.9725C35.2914 31.6392 36.518 31.9725 37.878 31.9725C39.238 31.9725 40.4514 31.6392 41.518 30.9725C42.6114 30.2792 43.4647 29.3459 44.078 28.1725C44.718 26.9992 45.038 25.6525 45.038 24.1325Z" fill="#383838"/>
<path d="M2.0489 6.53247C2.50223 6.53247 2.8889 6.69247 3.2089 7.01247C3.5289 7.3058 3.6889 7.69247 3.6889 8.17247V32.8925C3.6889 33.3458 3.51556 33.7325 3.1689 34.0525C2.8489 34.3725 2.46223 34.5325 2.0089 34.5325C1.50223 34.5325 1.10223 34.3725 0.808896 34.0525C0.515563 33.7325 0.368896 33.3458 0.368896 32.8925V8.17247C0.368896 7.69247 0.528896 7.3058 0.848896 7.01247C1.1689 6.69247 1.5689 6.53247 2.0489 6.53247ZM20.4889 6.53247C20.9689 6.53247 21.3556 6.69247 21.6489 7.01247C21.9689 7.3058 22.1289 7.69247 22.1289 8.17247V32.8925C22.1289 33.3458 21.9689 33.7325 21.6489 34.0525C21.3289 34.3725 20.9289 34.5325 20.4489 34.5325C19.9956 34.5325 19.6089 34.3725 19.2889 34.0525C18.9689 33.7325 18.8089 33.3458 18.8089 32.8925V8.17247C18.8089 7.69247 18.9689 7.3058 19.2889 7.01247C19.6356 6.69247 20.0356 6.53247 20.4889 6.53247ZM1.8889 18.7325H20.5289L20.4889 21.8525H1.7689L1.8889 18.7325Z" fill="#383838"/>
</svg>
