<svg width="557" height="223" viewBox="0 0 557 223" fill="none" xmlns="http://www.w3.org/2000/svg">
<path d="M53.6225 12V165.253H24.5L24.7157 12H53.6225Z" fill="#FFC200"/>
<path d="M115.787 54.0485C123.319 54.0125 130.762 55.5406 137.683 58.5247C151.201 64.3313 161.987 75.0994 167.794 88.636C170.814 95.611 172.342 103.143 172.288 110.748C172.288 114.864 171.857 118.981 170.958 123.008L170.742 123.439H115.14L101.118 101.112H142.716C140.829 95.2156 137.305 89.9663 132.541 86.0114C127.849 82.0924 121.917 79.9891 115.805 80.097C111.958 80.079 108.129 80.9059 104.641 82.5059C101.208 84.0339 98.1156 86.2091 95.5089 88.9236C92.9023 91.7101 90.8529 94.9639 89.4867 98.5233C87.9946 102.388 87.2574 106.487 87.2934 110.622C87.3293 114.163 87.9946 117.669 89.271 120.976C90.5833 124.518 92.5067 127.808 94.9695 130.684C97.5043 133.632 100.542 136.113 103.94 138.001C107.553 139.996 111.634 141.003 115.769 140.949C119.436 140.985 123.104 140.427 126.591 139.313C129.881 138.216 132.973 135.771 135.903 131.978L136.119 131.763L136.55 131.978L161.951 143.16L161.502 143.609C156.343 150.908 149.458 156.804 141.476 160.831C133.512 164.912 124.703 167.033 115.751 167.015C108.129 167.069 100.56 165.577 93.5135 162.629C86.7542 159.842 80.624 155.744 75.4467 150.584C70.3053 145.425 66.1706 139.331 63.2943 132.625C60.2921 125.722 58.7641 118.262 58.818 110.73C58.7641 103.125 60.2921 95.593 63.2943 88.618C69.1008 75.0634 79.923 64.2593 93.5135 58.5067C100.542 55.4866 108.129 53.9586 115.769 54.0305L115.787 54.0485Z" fill="#FFC200"/>
<path d="M285.956 55.7918V165.253H257.265V110.388C257.301 106.307 256.474 102.28 254.856 98.5229C253.274 94.9095 251.009 91.6198 248.186 88.8693C242.416 83.2245 234.686 80.0786 226.614 80.0786C222.551 80.0426 218.525 80.8696 214.786 82.5055C211.19 84.0874 207.882 86.2806 205.042 88.9951C202.184 91.7276 199.919 95.0174 198.373 98.6667C196.755 102.46 195.928 106.541 195.963 110.657C195.946 114.666 196.755 118.621 198.373 122.288C199.972 125.92 202.256 129.209 205.096 131.96C207.918 134.728 211.226 136.957 214.839 138.539C218.56 140.157 222.587 140.984 226.668 140.966C230.641 141.074 234.596 140.247 238.191 138.557H238.407V138.989L249.355 158.476L249.121 158.692C241.984 164.246 233.158 167.015 222.641 167.015C215.127 167.051 207.667 165.559 200.746 162.628C194.04 159.824 187.946 155.725 182.787 150.584C177.645 145.425 173.511 139.33 170.634 132.625C167.632 125.722 166.104 118.262 166.158 110.729C166.104 103.125 167.632 95.5926 170.634 88.6176C176.441 75.099 187.209 64.3128 200.746 58.5063C207.649 55.5042 215.109 53.9761 222.641 54.0301C229.527 53.8863 236.34 55.3244 242.56 58.2726C248.33 61.1669 253.364 65.3735 257.229 70.5328V55.7738H285.956V55.7918Z" fill="#FFC200"/>
<path d="M293.291 55.7916H323.06V165.253H293.291V55.7916ZM393.314 68.4833C397.197 73.5168 399.894 79.3773 401.188 85.5973C402.95 93.9385 403.758 102.46 403.596 110.981V188.102L374.959 210.932V110.855C374.959 106.756 374.852 102.837 374.636 99.1159C374.492 95.7003 373.719 92.3566 372.353 89.2286C371.023 86.3703 368.793 84.0153 366.007 82.5412C363.077 80.9412 358.906 80.1323 353.531 80.1143C348.587 80.0784 343.715 81.1929 339.293 83.4041V83.6198L339.078 83.4041L328.345 64.4564L328.579 64.2407C336.183 57.4455 345.675 54.0479 357.036 54.0479C374.528 54.0479 385.853 58.8656 393.314 68.5012V68.4833Z" fill="#FFC200"/>
<path d="M408.792 12H437.896V37.6171H408.792V12ZM408.792 165.253V55.7917H437.896V165.253H408.792Z" fill="#010101"/>
<path d="M499.198 100.231C504.016 101.849 508.438 103.485 512.447 105.157C516.204 106.685 519.745 108.716 522.963 111.179C525.894 113.426 528.284 116.302 529.974 119.592C531.736 123.242 532.599 127.268 532.491 131.313V131.529C532.491 142.621 528.806 151.303 521.453 157.577C514.083 163.851 503.764 166.997 490.479 166.997C482.12 166.997 473.815 165.541 465.959 162.701C457.869 159.789 450.265 155.654 443.416 150.441L443.182 150.207L443.416 149.991L458.247 126.495L458.462 126.711C462.651 131.241 467.72 134.855 473.347 137.317C478.938 139.744 484.978 140.967 491.072 140.931C499.683 140.931 503.998 138.162 503.998 132.643C503.998 130.019 502.613 128.077 499.845 126.747C496.645 125.273 493.355 124.033 489.994 123.026C489.328 122.756 488.627 122.576 487.908 122.486C487.189 122.397 486.488 122.217 485.823 121.947C481.436 120.779 477.068 119.502 472.682 118.118C468.475 116.824 464.484 114.9 460.853 112.419C457.348 110.029 454.399 106.918 452.206 103.287C449.923 99.5659 448.791 94.8021 448.791 88.9776V88.5462C448.737 83.7283 449.707 78.9645 451.649 74.5601C453.518 70.3715 456.287 66.6503 459.756 63.6481C463.477 60.4662 467.792 58.0573 472.448 56.5473C477.751 54.8215 483.288 53.9766 488.861 54.0305C496.052 54.0665 503.206 55.1271 510.092 57.1945C517.156 59.2798 523.88 62.4257 530.01 66.5065V66.9379L516.653 91.2427L516.437 91.009C512.86 87.5215 508.618 84.8069 503.962 83.0272C498.946 81.0498 493.589 80.043 488.196 80.079C487.027 80.079 485.859 80.1689 484.69 80.2947C483.432 80.4385 482.192 80.834 481.077 81.4273C480.016 81.9845 479.082 82.7576 478.345 83.7104C477.518 84.8968 477.122 86.317 477.212 87.7552C477.248 89.1574 477.895 90.4696 478.974 91.3685C480.358 92.5729 481.904 93.5977 483.576 94.3886C485.571 95.4133 487.621 96.3301 489.706 97.1211C491.989 97.984 494.2 98.7929 496.393 99.53C496.879 99.53 497.346 99.6019 497.814 99.7457L499.234 100.195L499.198 100.231Z" fill="#010101"/>
</svg>
