<svg width="114" height="45" viewBox="0 0 114 45" fill="none" xmlns="http://www.w3.org/2000/svg">
<path d="M6.97803 0.374634V34.4644H0.5L0.547984 0.374634H6.97803Z" fill="#FFC200"/>
<path d="M20.8059 9.72793C22.4814 9.71993 24.1368 10.0598 25.6764 10.7236C28.6835 12.0152 31.0828 14.4105 32.3744 17.4216C33.0462 18.9731 33.3861 20.6486 33.3741 22.3401C33.3741 23.2558 33.2781 24.1716 33.0782 25.0673L33.0302 25.1633H20.6619L17.5428 20.1968H26.7961C26.3762 18.8852 25.5924 17.7175 24.5327 16.8378C23.489 15.9661 22.1695 15.4982 20.8099 15.5222C19.9541 15.5182 19.1024 15.7021 18.3266 16.058C17.5628 16.3979 16.875 16.8818 16.2952 17.4856C15.7154 18.1054 15.2595 18.8292 14.9556 19.6209C14.6237 20.4807 14.4598 21.3924 14.4677 22.3121C14.4757 23.0999 14.6237 23.8797 14.9077 24.6154C15.1996 25.4032 15.6274 26.135 16.1752 26.7748C16.7391 27.4306 17.4149 27.9824 18.1706 28.4023C18.9744 28.8462 19.8822 29.0701 20.8019 29.0581C21.6176 29.0661 22.4334 28.9421 23.2092 28.6942C23.9409 28.4503 24.6287 27.9064 25.2805 27.0627L25.3285 27.0147L25.4245 27.0627L31.0748 29.55L30.9748 29.6499C29.8271 31.2734 28.2956 32.585 26.5202 33.4808C24.7487 34.3885 22.7893 34.8604 20.7979 34.8564C19.1024 34.8684 17.4189 34.5365 15.8514 33.8807C14.3478 33.2608 12.9842 32.3491 11.8326 31.2015C10.6889 30.0538 9.76917 28.6982 9.12936 27.2067C8.46157 25.6711 8.12167 24.0116 8.13367 22.3361C8.12167 20.6446 8.46157 18.9691 9.12936 17.4176C10.421 14.4025 12.8283 11.9992 15.8514 10.7196C17.4149 10.0478 19.1024 9.70793 20.8019 9.72393L20.8059 9.72793Z" fill="#FFC200"/>
<path d="M58.6585 10.1157V34.4644H52.2764V22.2601C52.2844 21.3524 52.1004 20.4566 51.7406 19.6209C51.3887 18.8171 50.8848 18.0853 50.257 17.4735C48.9734 16.2179 47.2539 15.5181 45.4585 15.5181C44.5547 15.5101 43.6591 15.6941 42.8273 16.058C42.0276 16.4098 41.2917 16.8977 40.6599 17.5015C40.0241 18.1093 39.5203 18.8411 39.1764 19.6529C38.8165 20.4966 38.6325 21.4043 38.6405 22.3201C38.6365 23.2118 38.8165 24.0915 39.1764 24.9073C39.5323 25.715 40.0401 26.4468 40.6719 27.0586C41.2997 27.6745 42.0355 28.1703 42.8392 28.5222C43.667 28.8821 44.5627 29.066 45.4705 29.062C46.3542 29.086 47.2339 28.9021 48.0337 28.5262H48.0817V28.6222L50.517 32.9569L50.465 33.0049C48.8774 34.2405 46.914 34.8563 44.5747 34.8563C42.9032 34.8643 41.2438 34.5324 39.7042 33.8806C38.2127 33.2568 36.8571 32.345 35.7094 31.2014C34.5658 30.0537 33.6461 28.6981 33.0063 27.2066C32.3385 25.6711 31.9986 24.0116 32.0106 22.3361C31.9986 20.6446 32.3385 18.9691 33.0063 17.4175C34.2979 14.4104 36.6931 12.0112 39.7042 10.7196C41.2398 10.0518 42.8993 9.71187 44.5747 9.72386C46.1063 9.69187 47.6219 10.0118 49.0054 10.6676C50.2891 11.3114 51.4087 12.2471 52.2684 13.3948V10.1117H58.6585V10.1157Z" fill="#FFC200"/>
<path d="M60.29 10.1157H66.9121V34.4643H60.29V10.1157ZM82.5393 12.9388C83.403 14.0585 84.0029 15.3621 84.2908 16.7457C84.6827 18.6011 84.8626 20.4965 84.8266 22.392V39.5468L78.4565 44.6253V22.364C78.4565 21.4522 78.4326 20.5805 78.3846 19.7528C78.3526 18.993 78.1806 18.2492 77.8767 17.5534C77.5808 16.9176 77.085 16.3938 76.4651 16.0659C75.8133 15.71 74.8856 15.53 73.69 15.526C72.5903 15.518 71.5066 15.766 70.5229 16.2578V16.3058L70.475 16.2578L68.0877 12.0431L68.1396 11.9951C69.8311 10.4835 71.9425 9.72778 74.4698 9.72778C78.3606 9.72778 80.8798 10.7995 82.5393 12.9428V12.9388Z" fill="#FFC200"/>
<path d="M85.9823 0.374634H92.4563V6.07292H85.9823V0.374634ZM85.9823 34.4644V10.1157H92.4563V34.4644H85.9823Z" fill="#010101"/>
<path d="M106.092 20.0008C107.164 20.3607 108.148 20.7246 109.039 21.0965C109.875 21.4364 110.663 21.8883 111.379 22.4361C112.03 22.936 112.562 23.5758 112.938 24.3075C113.33 25.1193 113.522 26.015 113.498 26.9147V26.9627C113.498 29.43 112.678 31.3614 111.043 32.757C109.403 34.1526 107.108 34.8524 104.153 34.8524C102.293 34.8524 100.446 34.5285 98.6985 33.8967C96.899 33.2488 95.2075 32.3291 93.684 31.1695L93.632 31.1175L93.684 31.0695L96.983 25.8431L97.0309 25.8911C97.9627 26.8988 99.0903 27.7025 100.342 28.2503C101.586 28.7902 102.929 29.0621 104.285 29.0541C106.2 29.0541 107.16 28.4383 107.16 27.2107C107.16 26.6268 106.852 26.195 106.236 25.8991C105.524 25.5712 104.793 25.2952 104.045 25.0713C103.897 25.0113 103.741 24.9713 103.581 24.9513C103.421 24.9313 103.265 24.8914 103.117 24.8314C102.141 24.5715 101.17 24.2875 100.194 23.9796C99.2583 23.6917 98.3706 23.2639 97.5628 22.712C96.783 22.1802 96.1272 21.4884 95.6394 20.6806C95.1315 19.8529 94.8796 18.7932 94.8796 17.4976V17.4016C94.8676 16.3299 95.0835 15.2703 95.5154 14.2906C95.9313 13.3588 96.5471 12.5311 97.3188 11.8633C98.1466 11.1555 99.1063 10.6197 100.142 10.2838C101.322 9.89987 102.553 9.71193 103.793 9.72393C105.392 9.73193 106.984 9.96786 108.515 10.4277C110.087 10.8916 111.583 11.5914 112.946 12.4991V12.5951L109.975 18.0014L109.927 17.9495C109.131 17.1737 108.188 16.5699 107.152 16.174C106.036 15.7341 104.845 15.5102 103.645 15.5182C103.385 15.5182 103.125 15.5382 102.865 15.5662C102.585 15.5982 102.309 15.6861 102.061 15.8181C101.826 15.9421 101.618 16.114 101.454 16.3259C101.27 16.5899 101.182 16.9058 101.202 17.2257C101.21 17.5376 101.354 17.8295 101.594 18.0294C101.902 18.2973 102.245 18.5253 102.617 18.7012C103.061 18.9292 103.517 19.1331 103.981 19.309C104.489 19.501 104.981 19.6809 105.468 19.8449C105.576 19.8449 105.68 19.8609 105.784 19.8929L106.1 19.9928L106.092 20.0008Z" fill="#010101"/>
</svg>
