<svg width="118" height="54" viewBox="0 0 118 54" fill="none" xmlns="http://www.w3.org/2000/svg">
<path d="M20.1309 11C20.0429 11 19.9749 10.976 19.9269 10.928C19.8789 10.872 19.8549 10.804 19.8549 10.724V2.888C19.8549 2.8 19.8789 2.732 19.9269 2.684C19.9749 2.628 20.0429 2.6 20.1309 2.6H20.6829C20.7789 2.6 20.8509 2.624 20.8989 2.672C20.9469 2.712 20.9749 2.744 20.9829 2.768L24.9669 8.888V2.888C24.9669 2.8 24.9909 2.732 25.0389 2.684C25.0869 2.628 25.1549 2.6 25.2429 2.6H25.8189C25.9069 2.6 25.9749 2.628 26.0229 2.684C26.0789 2.732 26.1069 2.8 26.1069 2.888V10.712C26.1069 10.792 26.0789 10.86 26.0229 10.916C25.9749 10.972 25.9109 11 25.8309 11H25.2549C25.1669 11 25.0989 10.976 25.0509 10.928C25.0109 10.88 24.9829 10.848 24.9669 10.832L20.9949 4.772V10.724C20.9949 10.804 20.9669 10.872 20.9109 10.928C20.8629 10.976 20.7949 11 20.7069 11H20.1309ZM30.5149 11.12C29.6909 11.12 29.0349 10.868 28.5469 10.364C28.0589 9.852 27.7909 9.156 27.7429 8.276C27.7349 8.172 27.7309 8.04 27.7309 7.88C27.7309 7.712 27.7349 7.576 27.7429 7.472C27.7749 6.904 27.9069 6.408 28.1389 5.984C28.3709 5.552 28.6869 5.22 29.0869 4.988C29.4949 4.756 29.9709 4.64 30.5149 4.64C31.1229 4.64 31.6309 4.768 32.0389 5.024C32.4549 5.28 32.7709 5.644 32.9869 6.116C33.2029 6.588 33.3109 7.14 33.3109 7.772V7.976C33.3109 8.064 33.2829 8.132 33.2269 8.18C33.1789 8.228 33.1149 8.252 33.0349 8.252H28.8829C28.8829 8.26 28.8829 8.276 28.8829 8.3C28.8829 8.324 28.8829 8.344 28.8829 8.36C28.8989 8.688 28.9709 8.996 29.0989 9.284C29.2269 9.564 29.4109 9.792 29.6509 9.968C29.8909 10.144 30.1789 10.232 30.5149 10.232C30.8029 10.232 31.0429 10.188 31.2349 10.1C31.4269 10.012 31.5829 9.916 31.7029 9.812C31.8229 9.7 31.9029 9.616 31.9429 9.56C32.0149 9.456 32.0709 9.396 32.1109 9.38C32.1509 9.356 32.2149 9.344 32.3029 9.344H32.8789C32.9589 9.344 33.0229 9.368 33.0709 9.416C33.1269 9.456 33.1509 9.516 33.1429 9.596C33.1349 9.716 33.0709 9.864 32.9509 10.04C32.8309 10.208 32.6589 10.376 32.4349 10.544C32.2109 10.712 31.9389 10.852 31.6189 10.964C31.2989 11.068 30.9309 11.12 30.5149 11.12ZM28.8829 7.424H32.1709V7.388C32.1709 7.028 32.1029 6.708 31.9669 6.428C31.8389 6.148 31.6509 5.928 31.4029 5.768C31.1549 5.6 30.8589 5.516 30.5149 5.516C30.1709 5.516 29.8749 5.6 29.6269 5.768C29.3869 5.928 29.2029 6.148 29.0749 6.428C28.9469 6.708 28.8829 7.028 28.8829 7.388V7.424ZM34.3289 11C34.2649 11 34.2049 10.976 34.1489 10.928C34.1009 10.88 34.0769 10.82 34.0769 10.748C34.0769 10.724 34.0809 10.696 34.0889 10.664C34.1049 10.624 34.1289 10.58 34.1609 10.532L36.2489 7.808L34.2929 5.228C34.2609 5.18 34.2369 5.14 34.2209 5.108C34.2129 5.076 34.2089 5.044 34.2089 5.012C34.2089 4.94 34.2329 4.88 34.2809 4.832C34.3289 4.784 34.3889 4.76 34.4609 4.76H35.0729C35.1609 4.76 35.2249 4.784 35.2649 4.832C35.3129 4.872 35.3529 4.912 35.3849 4.952L36.9809 7.028L38.5769 4.964C38.6089 4.924 38.6449 4.88 38.6849 4.832C38.7329 4.784 38.8009 4.76 38.8889 4.76H39.4769C39.5489 4.76 39.6089 4.784 39.6569 4.832C39.7049 4.88 39.7289 4.94 39.7289 5.012C39.7289 5.044 39.7209 5.076 39.7049 5.108C39.6969 5.14 39.6769 5.18 39.6449 5.228L37.6649 7.832L39.7529 10.532C39.7849 10.58 39.8049 10.62 39.8129 10.652C39.8289 10.684 39.8369 10.716 39.8369 10.748C39.8369 10.82 39.8129 10.88 39.7649 10.928C39.7169 10.976 39.6569 11 39.5849 11H38.9489C38.8689 11 38.8049 10.98 38.7569 10.94C38.7089 10.9 38.6689 10.86 38.6369 10.82L36.9449 8.624L35.2529 10.82C35.2209 10.852 35.1809 10.892 35.1329 10.94C35.0929 10.98 35.0289 11 34.9409 11H34.3289ZM43.5216 11C43.0736 11 42.7096 10.916 42.4296 10.748C42.1496 10.572 41.9456 10.328 41.8176 10.016C41.6896 9.696 41.6256 9.32 41.6256 8.888V5.72H40.6896C40.6096 5.72 40.5416 5.696 40.4856 5.648C40.4376 5.592 40.4136 5.524 40.4136 5.444V5.036C40.4136 4.956 40.4376 4.892 40.4856 4.844C40.5416 4.788 40.6096 4.76 40.6896 4.76H41.6256V2.756C41.6256 2.676 41.6496 2.612 41.6976 2.564C41.7536 2.508 41.8216 2.48 41.9016 2.48H42.4656C42.5456 2.48 42.6096 2.508 42.6576 2.564C42.7136 2.612 42.7416 2.676 42.7416 2.756V4.76H44.2296C44.3096 4.76 44.3736 4.788 44.4216 4.844C44.4776 4.892 44.5056 4.956 44.5056 5.036V5.444C44.5056 5.524 44.4776 5.592 44.4216 5.648C44.3736 5.696 44.3096 5.72 44.2296 5.72H42.7416V8.804C42.7416 9.18 42.8056 9.476 42.9336 9.692C43.0616 9.908 43.2896 10.016 43.6176 10.016H44.3496C44.4296 10.016 44.4936 10.044 44.5416 10.1C44.5976 10.148 44.6256 10.212 44.6256 10.292V10.724C44.6256 10.804 44.5976 10.872 44.5416 10.928C44.4936 10.976 44.4296 11 44.3496 11H43.5216ZM45.8719 7.904C45.7919 7.904 45.7239 7.88 45.6679 7.832C45.6199 7.776 45.5959 7.708 45.5959 7.628V7.172C45.5959 7.092 45.6199 7.028 45.6679 6.98C45.7239 6.924 45.7919 6.896 45.8719 6.896H49.4719C49.5519 6.896 49.6159 6.924 49.6639 6.98C49.7199 7.028 49.7479 7.092 49.7479 7.172V7.628C49.7479 7.708 49.7199 7.776 49.6639 7.832C49.6159 7.88 49.5519 7.904 49.4719 7.904H45.8719ZM54.6724 11.12C53.9684 11.12 53.3684 10.988 52.8724 10.724C52.3844 10.46 52.0084 10.088 51.7444 9.608C51.4884 9.128 51.3444 8.564 51.3124 7.916C51.3044 7.564 51.3004 7.192 51.3004 6.8C51.3004 6.4 51.3044 6.02 51.3124 5.66C51.3444 5.012 51.4884 4.452 51.7444 3.98C52.0084 3.508 52.3884 3.14 52.8844 2.876C53.3804 2.612 53.9764 2.48 54.6724 2.48C55.2404 2.48 55.7324 2.56 56.1484 2.72C56.5644 2.88 56.9044 3.084 57.1684 3.332C57.4404 3.572 57.6404 3.824 57.7684 4.088C57.9044 4.352 57.9764 4.584 57.9844 4.784C57.9924 4.856 57.9724 4.916 57.9244 4.964C57.8764 5.004 57.8124 5.024 57.7324 5.024H57.0244C56.9444 5.024 56.8844 5.008 56.8444 4.976C56.8124 4.944 56.7804 4.888 56.7484 4.808C56.6764 4.6 56.5564 4.396 56.3884 4.196C56.2284 3.996 56.0084 3.832 55.7284 3.704C55.4564 3.568 55.1044 3.5 54.6724 3.5C54.0404 3.5 53.5284 3.672 53.1364 4.016C52.7524 4.36 52.5444 4.928 52.5124 5.72C52.4884 6.432 52.4884 7.144 52.5124 7.856C52.5444 8.656 52.7564 9.232 53.1484 9.584C53.5404 9.928 54.0524 10.1 54.6844 10.1C55.1084 10.1 55.4844 10.024 55.8124 9.872C56.1484 9.712 56.4124 9.468 56.6044 9.14C56.7964 8.812 56.8924 8.396 56.8924 7.892V7.388H55.0924C55.0124 7.388 54.9444 7.364 54.8884 7.316C54.8404 7.26 54.8164 7.188 54.8164 7.1V6.716C54.8164 6.628 54.8404 6.56 54.8884 6.512C54.9444 6.456 55.0124 6.428 55.0924 6.428H57.8044C57.8924 6.428 57.9604 6.456 58.0084 6.512C58.0564 6.56 58.0804 6.628 58.0804 6.716V7.868C58.0804 8.524 57.9444 9.096 57.6724 9.584C57.4084 10.072 57.0204 10.452 56.5084 10.724C55.9964 10.988 55.3844 11.12 54.6724 11.12ZM62.1204 11.12C61.2964 11.12 60.6404 10.868 60.1524 10.364C59.6644 9.852 59.3964 9.156 59.3484 8.276C59.3404 8.172 59.3364 8.04 59.3364 7.88C59.3364 7.712 59.3404 7.576 59.3484 7.472C59.3804 6.904 59.5124 6.408 59.7444 5.984C59.9764 5.552 60.2924 5.22 60.6924 4.988C61.1004 4.756 61.5764 4.64 62.1204 4.64C62.7284 4.64 63.2364 4.768 63.6444 5.024C64.0604 5.28 64.3764 5.644 64.5924 6.116C64.8084 6.588 64.9164 7.14 64.9164 7.772V7.976C64.9164 8.064 64.8884 8.132 64.8324 8.18C64.7844 8.228 64.7204 8.252 64.6404 8.252H60.4884C60.4884 8.26 60.4884 8.276 60.4884 8.3C60.4884 8.324 60.4884 8.344 60.4884 8.36C60.5044 8.688 60.5764 8.996 60.7044 9.284C60.8324 9.564 61.0164 9.792 61.2564 9.968C61.4964 10.144 61.7844 10.232 62.1204 10.232C62.4084 10.232 62.6484 10.188 62.8404 10.1C63.0324 10.012 63.1884 9.916 63.3084 9.812C63.4284 9.7 63.5084 9.616 63.5484 9.56C63.6204 9.456 63.6764 9.396 63.7164 9.38C63.7564 9.356 63.8204 9.344 63.9084 9.344H64.4844C64.5644 9.344 64.6284 9.368 64.6764 9.416C64.7324 9.456 64.7564 9.516 64.7484 9.596C64.7404 9.716 64.6764 9.864 64.5564 10.04C64.4364 10.208 64.2644 10.376 64.0404 10.544C63.8164 10.712 63.5444 10.852 63.2244 10.964C62.9044 11.068 62.5364 11.12 62.1204 11.12ZM60.4884 7.424H63.7764V7.388C63.7764 7.028 63.7084 6.708 63.5724 6.428C63.4444 6.148 63.2564 5.928 63.0084 5.768C62.7604 5.6 62.4644 5.516 62.1204 5.516C61.7764 5.516 61.4804 5.6 61.2324 5.768C60.9924 5.928 60.8084 6.148 60.6804 6.428C60.5524 6.708 60.4884 7.028 60.4884 7.388V7.424ZM66.6272 11C66.5472 11 66.4792 10.976 66.4232 10.928C66.3752 10.872 66.3512 10.804 66.3512 10.724V5.036C66.3512 4.956 66.3752 4.892 66.4232 4.844C66.4792 4.788 66.5472 4.76 66.6272 4.76H67.1912C67.2712 4.76 67.3352 4.788 67.3832 4.844C67.4392 4.892 67.4672 4.956 67.4672 5.036V5.564C67.6752 5.292 67.9352 5.072 68.2472 4.904C68.5672 4.728 68.9752 4.64 69.4712 4.64C69.9912 4.64 70.4312 4.756 70.7912 4.988C71.1592 5.212 71.4352 5.528 71.6192 5.936C71.8032 6.336 71.8952 6.804 71.8952 7.34V10.724C71.8952 10.804 71.8712 10.872 71.8232 10.928C71.7752 10.976 71.7112 11 71.6312 11H71.0312C70.9512 11 70.8832 10.976 70.8272 10.928C70.7792 10.872 70.7552 10.804 70.7552 10.724V7.4C70.7552 6.84 70.6192 6.404 70.3472 6.092C70.0752 5.772 69.6752 5.612 69.1472 5.612C68.6512 5.612 68.2512 5.772 67.9472 6.092C67.6512 6.404 67.5032 6.84 67.5032 7.4V10.724C67.5032 10.804 67.4752 10.872 67.4192 10.928C67.3712 10.976 67.3072 11 67.2272 11H66.6272ZM76.1126 11.12C75.2886 11.12 74.6326 10.868 74.1446 10.364C73.6566 9.852 73.3886 9.156 73.3406 8.276C73.3326 8.172 73.3286 8.04 73.3286 7.88C73.3286 7.712 73.3326 7.576 73.3406 7.472C73.3726 6.904 73.5046 6.408 73.7366 5.984C73.9686 5.552 74.2846 5.22 74.6846 4.988C75.0926 4.756 75.5686 4.64 76.1126 4.64C76.7206 4.64 77.2286 4.768 77.6366 5.024C78.0526 5.28 78.3686 5.644 78.5846 6.116C78.8006 6.588 78.9086 7.14 78.9086 7.772V7.976C78.9086 8.064 78.8806 8.132 78.8246 8.18C78.7766 8.228 78.7126 8.252 78.6326 8.252H74.4806C74.4806 8.26 74.4806 8.276 74.4806 8.3C74.4806 8.324 74.4806 8.344 74.4806 8.36C74.4966 8.688 74.5686 8.996 74.6966 9.284C74.8246 9.564 75.0086 9.792 75.2486 9.968C75.4886 10.144 75.7766 10.232 76.1126 10.232C76.4006 10.232 76.6406 10.188 76.8326 10.1C77.0246 10.012 77.1806 9.916 77.3006 9.812C77.4206 9.7 77.5006 9.616 77.5406 9.56C77.6126 9.456 77.6686 9.396 77.7086 9.38C77.7486 9.356 77.8126 9.344 77.9006 9.344H78.4766C78.5566 9.344 78.6206 9.368 78.6686 9.416C78.7246 9.456 78.7486 9.516 78.7406 9.596C78.7326 9.716 78.6686 9.864 78.5486 10.04C78.4286 10.208 78.2566 10.376 78.0326 10.544C77.8086 10.712 77.5366 10.852 77.2166 10.964C76.8966 11.068 76.5286 11.12 76.1126 11.12ZM74.4806 7.424H77.7686V7.388C77.7686 7.028 77.7006 6.708 77.5646 6.428C77.4366 6.148 77.2486 5.928 77.0006 5.768C76.7526 5.6 76.4566 5.516 76.1126 5.516C75.7686 5.516 75.4726 5.6 75.2246 5.768C74.9846 5.928 74.8006 6.148 74.6726 6.428C74.5446 6.708 74.4806 7.028 74.4806 7.388V7.424ZM80.6194 11C80.5394 11 80.4714 10.976 80.4154 10.928C80.3674 10.872 80.3434 10.804 80.3434 10.724V5.048C80.3434 4.968 80.3674 4.9 80.4154 4.844C80.4714 4.788 80.5394 4.76 80.6194 4.76H81.1714C81.2514 4.76 81.3194 4.788 81.3754 4.844C81.4314 4.9 81.4594 4.968 81.4594 5.048V5.576C81.6194 5.304 81.8394 5.1 82.1194 4.964C82.3994 4.828 82.7354 4.76 83.1274 4.76H83.6074C83.6874 4.76 83.7514 4.788 83.7994 4.844C83.8474 4.892 83.8714 4.956 83.8714 5.036V5.528C83.8714 5.608 83.8474 5.672 83.7994 5.72C83.7514 5.768 83.6874 5.792 83.6074 5.792H82.8874C82.4554 5.792 82.1154 5.92 81.8674 6.176C81.6194 6.424 81.4954 6.764 81.4954 7.196V10.724C81.4954 10.804 81.4674 10.872 81.4114 10.928C81.3554 10.976 81.2874 11 81.2074 11H80.6194ZM86.5483 11.12C86.1483 11.12 85.7843 11.04 85.4563 10.88C85.1283 10.72 84.8643 10.504 84.6643 10.232C84.4643 9.96 84.3643 9.652 84.3643 9.308C84.3643 8.756 84.5883 8.316 85.0363 7.988C85.4843 7.66 86.0683 7.444 86.7883 7.34L88.5763 7.088V6.74C88.5763 6.356 88.4643 6.056 88.2403 5.84C88.0243 5.624 87.6683 5.516 87.1723 5.516C86.8123 5.516 86.5203 5.588 86.2963 5.732C86.0803 5.876 85.9283 6.06 85.8403 6.284C85.7923 6.404 85.7083 6.464 85.5883 6.464H85.0483C84.9603 6.464 84.8923 6.44 84.8443 6.392C84.8043 6.336 84.7843 6.272 84.7843 6.2C84.7843 6.08 84.8283 5.932 84.9163 5.756C85.0123 5.58 85.1563 5.408 85.3483 5.24C85.5403 5.072 85.7843 4.932 86.0803 4.82C86.3843 4.7 86.7523 4.64 87.1843 4.64C87.6643 4.64 88.0683 4.704 88.3963 4.832C88.7243 4.952 88.9803 5.116 89.1643 5.324C89.3563 5.532 89.4923 5.768 89.5723 6.032C89.6603 6.296 89.7043 6.564 89.7043 6.836V10.724C89.7043 10.804 89.6763 10.872 89.6203 10.928C89.5723 10.976 89.5083 11 89.4283 11H88.8763C88.7883 11 88.7203 10.976 88.6723 10.928C88.6243 10.872 88.6003 10.804 88.6003 10.724V10.208C88.4963 10.352 88.3563 10.496 88.1803 10.64C88.0043 10.776 87.7843 10.892 87.5203 10.988C87.2563 11.076 86.9323 11.12 86.5483 11.12ZM86.8003 10.22C87.1283 10.22 87.4283 10.152 87.7003 10.016C87.9723 9.872 88.1843 9.652 88.3363 9.356C88.4963 9.06 88.5763 8.688 88.5763 8.24V7.904L87.1843 8.108C86.6163 8.188 86.1883 8.324 85.9003 8.516C85.6123 8.7 85.4683 8.936 85.4683 9.224C85.4683 9.448 85.5323 9.636 85.6603 9.788C85.7963 9.932 85.9643 10.04 86.1643 10.112C86.3723 10.184 86.5843 10.22 86.8003 10.22ZM93.8068 11C93.3588 11 92.9948 10.916 92.7148 10.748C92.4348 10.572 92.2308 10.328 92.1028 10.016C91.9748 9.696 91.9108 9.32 91.9108 8.888V5.72H90.9748C90.8948 5.72 90.8268 5.696 90.7708 5.648C90.7228 5.592 90.6988 5.524 90.6988 5.444V5.036C90.6988 4.956 90.7228 4.892 90.7708 4.844C90.8268 4.788 90.8948 4.76 90.9748 4.76H91.9108V2.756C91.9108 2.676 91.9348 2.612 91.9828 2.564C92.0388 2.508 92.1068 2.48 92.1868 2.48H92.7508C92.8308 2.48 92.8948 2.508 92.9428 2.564C92.9988 2.612 93.0268 2.676 93.0268 2.756V4.76H94.5148C94.5948 4.76 94.6588 4.788 94.7068 4.844C94.7628 4.892 94.7908 4.956 94.7908 5.036V5.444C94.7908 5.524 94.7628 5.592 94.7068 5.648C94.6588 5.696 94.5948 5.72 94.5148 5.72H93.0268V8.804C93.0268 9.18 93.0908 9.476 93.2188 9.692C93.3468 9.908 93.5748 10.016 93.9028 10.016H94.6348C94.7148 10.016 94.7788 10.044 94.8268 10.1C94.8828 10.148 94.9108 10.212 94.9108 10.292V10.724C94.9108 10.804 94.8828 10.872 94.8268 10.928C94.7788 10.976 94.7148 11 94.6348 11H93.8068ZM96.3343 11C96.2543 11 96.1863 10.976 96.1303 10.928C96.0823 10.872 96.0583 10.804 96.0583 10.724V5.036C96.0583 4.956 96.0823 4.892 96.1303 4.844C96.1863 4.788 96.2543 4.76 96.3343 4.76H96.9103C96.9903 4.76 97.0543 4.788 97.1023 4.844C97.1503 4.892 97.1743 4.956 97.1743 5.036V10.724C97.1743 10.804 97.1503 10.872 97.1023 10.928C97.0543 10.976 96.9903 11 96.9103 11H96.3343ZM96.2383 3.596C96.1583 3.596 96.0903 3.572 96.0343 3.524C95.9863 3.468 95.9623 3.4 95.9623 3.32V2.672C95.9623 2.592 95.9863 2.528 96.0343 2.48C96.0903 2.424 96.1583 2.396 96.2383 2.396H96.9943C97.0743 2.396 97.1383 2.424 97.1863 2.48C97.2423 2.528 97.2703 2.592 97.2703 2.672V3.32C97.2703 3.4 97.2423 3.468 97.1863 3.524C97.1383 3.572 97.0743 3.596 96.9943 3.596H96.2383ZM101.521 11.12C100.913 11.12 100.405 11.004 99.9965 10.772C99.5885 10.54 99.2765 10.22 99.0605 9.812C98.8445 9.396 98.7245 8.924 98.7005 8.396C98.6925 8.26 98.6885 8.088 98.6885 7.88C98.6885 7.664 98.6925 7.492 98.7005 7.364C98.7245 6.828 98.8445 6.356 99.0605 5.948C99.2845 5.54 99.6005 5.22 100.009 4.988C100.417 4.756 100.921 4.64 101.521 4.64C102.121 4.64 102.625 4.756 103.033 4.988C103.441 5.22 103.753 5.54 103.969 5.948C104.193 6.356 104.317 6.828 104.341 7.364C104.349 7.492 104.353 7.664 104.353 7.88C104.353 8.088 104.349 8.26 104.341 8.396C104.317 8.924 104.197 9.396 103.981 9.812C103.765 10.22 103.453 10.54 103.045 10.772C102.637 11.004 102.129 11.12 101.521 11.12ZM101.521 10.196C102.017 10.196 102.413 10.04 102.709 9.728C103.005 9.408 103.165 8.944 103.189 8.336C103.197 8.216 103.201 8.064 103.201 7.88C103.201 7.696 103.197 7.544 103.189 7.424C103.165 6.816 103.005 6.356 102.709 6.044C102.413 5.724 102.017 5.564 101.521 5.564C101.025 5.564 100.625 5.724 100.321 6.044C100.025 6.356 99.8685 6.816 99.8525 7.424C99.8445 7.544 99.8405 7.696 99.8405 7.88C99.8405 8.064 99.8445 8.216 99.8525 8.336C99.8685 8.944 100.025 9.408 100.321 9.728C100.625 10.04 101.025 10.196 101.521 10.196ZM106.131 11C106.051 11 105.983 10.976 105.927 10.928C105.879 10.872 105.855 10.804 105.855 10.724V5.036C105.855 4.956 105.879 4.892 105.927 4.844C105.983 4.788 106.051 4.76 106.131 4.76H106.695C106.775 4.76 106.839 4.788 106.887 4.844C106.943 4.892 106.971 4.956 106.971 5.036V5.564C107.179 5.292 107.439 5.072 107.751 4.904C108.071 4.728 108.479 4.64 108.975 4.64C109.495 4.64 109.935 4.756 110.295 4.988C110.663 5.212 110.939 5.528 111.123 5.936C111.307 6.336 111.399 6.804 111.399 7.34V10.724C111.399 10.804 111.375 10.872 111.327 10.928C111.279 10.976 111.215 11 111.135 11H110.535C110.455 11 110.387 10.976 110.331 10.928C110.283 10.872 110.259 10.804 110.259 10.724V7.4C110.259 6.84 110.123 6.404 109.851 6.092C109.579 5.772 109.179 5.612 108.651 5.612C108.155 5.612 107.755 5.772 107.451 6.092C107.155 6.404 107.007 6.84 107.007 7.4V10.724C107.007 10.804 106.979 10.872 106.923 10.928C106.875 10.976 106.811 11 106.731 11H106.131ZM113.048 11.9C112.984 11.9 112.932 11.876 112.892 11.828C112.86 11.78 112.848 11.72 112.856 11.648L113.132 9.932C113.148 9.836 113.18 9.756 113.228 9.692C113.284 9.62 113.364 9.584 113.468 9.584H114.272C114.328 9.584 114.372 9.604 114.404 9.644C114.444 9.684 114.464 9.732 114.464 9.788C114.464 9.852 114.448 9.916 114.416 9.98L113.792 11.624C113.76 11.704 113.716 11.768 113.66 11.816C113.612 11.872 113.54 11.9 113.444 11.9H113.048Z" fill="url(#paint0_linear_1_1858)"/>
<path d="M23.0229 25.12C22.3509 25.12 21.7709 25 21.2829 24.76C20.8029 24.52 20.4309 24.156 20.1669 23.668C19.9109 23.172 19.7829 22.536 19.7829 21.76V16.888C19.7829 16.8 19.8069 16.732 19.8549 16.684C19.9029 16.628 19.9709 16.6 20.0589 16.6H20.6709C20.7589 16.6 20.8269 16.628 20.8749 16.684C20.9309 16.732 20.9589 16.8 20.9589 16.888V21.784C20.9589 22.568 21.1429 23.148 21.5109 23.524C21.8789 23.9 22.3829 24.088 23.0229 24.088C23.6549 24.088 24.1549 23.9 24.5229 23.524C24.8989 23.148 25.0869 22.568 25.0869 21.784V16.888C25.0869 16.8 25.1109 16.732 25.1589 16.684C25.2149 16.628 25.2829 16.6 25.3629 16.6H25.9869C26.0669 16.6 26.1309 16.628 26.1789 16.684C26.2349 16.732 26.2629 16.8 26.2629 16.888V21.76C26.2629 22.536 26.1309 23.172 25.8669 23.668C25.6109 24.156 25.2429 24.52 24.7629 24.76C24.2829 25 23.7029 25.12 23.0229 25.12ZM28.3889 25C28.3089 25 28.2409 24.976 28.1849 24.928C28.1369 24.872 28.1129 24.804 28.1129 24.724V19.036C28.1129 18.956 28.1369 18.892 28.1849 18.844C28.2409 18.788 28.3089 18.76 28.3889 18.76H28.9529C29.0329 18.76 29.0969 18.788 29.1449 18.844C29.2009 18.892 29.2289 18.956 29.2289 19.036V19.564C29.4369 19.292 29.6969 19.072 30.0089 18.904C30.3289 18.728 30.7369 18.64 31.2329 18.64C31.7529 18.64 32.1929 18.756 32.5529 18.988C32.9209 19.212 33.1969 19.528 33.3809 19.936C33.5649 20.336 33.6569 20.804 33.6569 21.34V24.724C33.6569 24.804 33.6329 24.872 33.5849 24.928C33.5369 24.976 33.4729 25 33.3929 25H32.7929C32.7129 25 32.6449 24.976 32.5889 24.928C32.5409 24.872 32.5169 24.804 32.5169 24.724V21.4C32.5169 20.84 32.3809 20.404 32.1089 20.092C31.8369 19.772 31.4369 19.612 30.9089 19.612C30.4129 19.612 30.0129 19.772 29.7089 20.092C29.4129 20.404 29.2649 20.84 29.2649 21.4V24.724C29.2649 24.804 29.2369 24.872 29.1809 24.928C29.1329 24.976 29.0689 25 28.9889 25H28.3889ZM35.6663 25C35.5863 25 35.5183 24.976 35.4623 24.928C35.4143 24.872 35.3903 24.804 35.3903 24.724V19.036C35.3903 18.956 35.4143 18.892 35.4623 18.844C35.5183 18.788 35.5863 18.76 35.6663 18.76H36.2423C36.3223 18.76 36.3863 18.788 36.4343 18.844C36.4823 18.892 36.5063 18.956 36.5063 19.036V24.724C36.5063 24.804 36.4823 24.872 36.4343 24.928C36.3863 24.976 36.3223 25 36.2423 25H35.6663ZM35.5703 17.596C35.4903 17.596 35.4223 17.572 35.3663 17.524C35.3183 17.468 35.2943 17.4 35.2943 17.32V16.672C35.2943 16.592 35.3183 16.528 35.3663 16.48C35.4223 16.424 35.4903 16.396 35.5703 16.396H36.3263C36.4063 16.396 36.4703 16.424 36.5183 16.48C36.5743 16.528 36.6023 16.592 36.6023 16.672V17.32C36.6023 17.4 36.5743 17.468 36.5183 17.524C36.4703 17.572 36.4063 17.596 36.3263 17.596H35.5703ZM39.1965 25C39.1165 25 39.0485 24.976 38.9925 24.928C38.9445 24.872 38.9205 24.804 38.9205 24.724V19.72H37.9005C37.8205 19.72 37.7525 19.696 37.6965 19.648C37.6485 19.592 37.6245 19.524 37.6245 19.444V19.036C37.6245 18.956 37.6485 18.892 37.6965 18.844C37.7525 18.788 37.8205 18.76 37.9005 18.76H38.9205V18.16C38.9205 17.752 38.9885 17.396 39.1245 17.092C39.2605 16.78 39.4765 16.54 39.7725 16.372C40.0765 16.204 40.4805 16.12 40.9845 16.12H42.8325C42.9125 16.12 42.9765 16.148 43.0245 16.204C43.0805 16.252 43.1085 16.316 43.1085 16.396V16.804C43.1085 16.884 43.0805 16.952 43.0245 17.008C42.9765 17.056 42.9125 17.08 42.8325 17.08H41.0085C40.6325 17.08 40.3765 17.18 40.2405 17.38C40.1045 17.572 40.0365 17.852 40.0365 18.22V18.76H42.8325C42.9125 18.76 42.9765 18.788 43.0245 18.844C43.0805 18.892 43.1085 18.956 43.1085 19.036V24.724C43.1085 24.804 43.0805 24.872 43.0245 24.928C42.9765 24.976 42.9125 25 42.8325 25H42.2805C42.1925 25 42.1245 24.976 42.0765 24.928C42.0285 24.872 42.0045 24.804 42.0045 24.724V19.72H40.0365V24.724C40.0365 24.804 40.0085 24.872 39.9525 24.928C39.9045 24.976 39.8405 25 39.7605 25H39.1965ZM47.3665 25.12C46.5425 25.12 45.8865 24.868 45.3985 24.364C44.9105 23.852 44.6425 23.156 44.5945 22.276C44.5865 22.172 44.5825 22.04 44.5825 21.88C44.5825 21.712 44.5865 21.576 44.5945 21.472C44.6265 20.904 44.7585 20.408 44.9905 19.984C45.2225 19.552 45.5385 19.22 45.9385 18.988C46.3465 18.756 46.8225 18.64 47.3665 18.64C47.9745 18.64 48.4825 18.768 48.8905 19.024C49.3065 19.28 49.6225 19.644 49.8385 20.116C50.0545 20.588 50.1625 21.14 50.1625 21.772V21.976C50.1625 22.064 50.1345 22.132 50.0785 22.18C50.0305 22.228 49.9665 22.252 49.8865 22.252H45.7345C45.7345 22.26 45.7345 22.276 45.7345 22.3C45.7345 22.324 45.7345 22.344 45.7345 22.36C45.7505 22.688 45.8225 22.996 45.9505 23.284C46.0785 23.564 46.2625 23.792 46.5025 23.968C46.7425 24.144 47.0305 24.232 47.3665 24.232C47.6545 24.232 47.8945 24.188 48.0865 24.1C48.2785 24.012 48.4345 23.916 48.5545 23.812C48.6745 23.7 48.7545 23.616 48.7945 23.56C48.8665 23.456 48.9225 23.396 48.9625 23.38C49.0025 23.356 49.0665 23.344 49.1545 23.344H49.7305C49.8105 23.344 49.8745 23.368 49.9225 23.416C49.9785 23.456 50.0025 23.516 49.9945 23.596C49.9865 23.716 49.9225 23.864 49.8025 24.04C49.6825 24.208 49.5105 24.376 49.2865 24.544C49.0625 24.712 48.7905 24.852 48.4705 24.964C48.1505 25.068 47.7825 25.12 47.3665 25.12ZM45.7345 21.424H49.0225V21.388C49.0225 21.028 48.9545 20.708 48.8185 20.428C48.6905 20.148 48.5025 19.928 48.2545 19.768C48.0065 19.6 47.7105 19.516 47.3665 19.516C47.0225 19.516 46.7265 19.6 46.4785 19.768C46.2385 19.928 46.0545 20.148 45.9265 20.428C45.7985 20.708 45.7345 21.028 45.7345 21.388V21.424ZM53.8773 25.12C53.4373 25.12 53.0573 25.044 52.7373 24.892C52.4173 24.732 52.1533 24.52 51.9453 24.256C51.7453 23.984 51.5933 23.676 51.4893 23.332C51.3933 22.988 51.3373 22.624 51.3213 22.24C51.3133 22.112 51.3093 21.992 51.3093 21.88C51.3093 21.768 51.3133 21.648 51.3213 21.52C51.3373 21.144 51.3933 20.784 51.4893 20.44C51.5933 20.096 51.7453 19.788 51.9453 19.516C52.1533 19.244 52.4173 19.032 52.7373 18.88C53.0573 18.72 53.4373 18.64 53.8773 18.64C54.3493 18.64 54.7413 18.724 55.0533 18.892C55.3653 19.06 55.6213 19.268 55.8213 19.516V16.756C55.8213 16.676 55.8453 16.612 55.8933 16.564C55.9493 16.508 56.0173 16.48 56.0973 16.48H56.6733C56.7533 16.48 56.8173 16.508 56.8653 16.564C56.9213 16.612 56.9493 16.676 56.9493 16.756V24.724C56.9493 24.804 56.9213 24.872 56.8653 24.928C56.8173 24.976 56.7533 25 56.6733 25H56.1333C56.0453 25 55.9773 24.976 55.9293 24.928C55.8813 24.872 55.8573 24.804 55.8573 24.724V24.22C55.6573 24.476 55.3973 24.692 55.0773 24.868C54.7573 25.036 54.3573 25.12 53.8773 25.12ZM54.1293 24.148C54.5293 24.148 54.8493 24.056 55.0893 23.872C55.3293 23.688 55.5093 23.456 55.6293 23.176C55.7493 22.888 55.8133 22.596 55.8213 22.3C55.8293 22.172 55.8333 22.02 55.8333 21.844C55.8333 21.66 55.8293 21.504 55.8213 21.376C55.8133 21.096 55.7453 20.82 55.6173 20.548C55.4973 20.276 55.3133 20.052 55.0653 19.876C54.8253 19.7 54.5133 19.612 54.1293 19.612C53.7213 19.612 53.3973 19.704 53.1573 19.888C52.9173 20.064 52.7453 20.3 52.6413 20.596C52.5373 20.884 52.4773 21.196 52.4613 21.532C52.4533 21.764 52.4533 21.996 52.4613 22.228C52.4773 22.564 52.5373 22.88 52.6413 23.176C52.7453 23.464 52.9173 23.7 53.1573 23.884C53.3973 24.06 53.7213 24.148 54.1293 24.148ZM62.1074 25C62.0194 25 61.9514 24.976 61.9034 24.928C61.8554 24.872 61.8314 24.804 61.8314 24.724V16.888C61.8314 16.8 61.8554 16.732 61.9034 16.684C61.9514 16.628 62.0194 16.6 62.1074 16.6H65.1554C65.7474 16.6 66.2594 16.696 66.6914 16.888C67.1314 17.08 67.4714 17.368 67.7114 17.752C67.9514 18.128 68.0714 18.6 68.0714 19.168C68.0714 19.736 67.9514 20.208 67.7114 20.584C67.4714 20.96 67.1314 21.244 66.6914 21.436C66.2594 21.628 65.7474 21.724 65.1554 21.724H63.0314V24.724C63.0314 24.804 63.0034 24.872 62.9474 24.928C62.8994 24.976 62.8314 25 62.7434 25H62.1074ZM63.0194 20.716H65.0954C65.6874 20.716 66.1314 20.584 66.4274 20.32C66.7234 20.056 66.8714 19.672 66.8714 19.168C66.8714 18.672 66.7274 18.288 66.4394 18.016C66.1514 17.744 65.7034 17.608 65.0954 17.608H63.0194V20.716ZM70.9975 25.12C70.5975 25.12 70.2335 25.04 69.9055 24.88C69.5775 24.72 69.3135 24.504 69.1135 24.232C68.9135 23.96 68.8135 23.652 68.8135 23.308C68.8135 22.756 69.0375 22.316 69.4855 21.988C69.9335 21.66 70.5175 21.444 71.2375 21.34L73.0255 21.088V20.74C73.0255 20.356 72.9135 20.056 72.6895 19.84C72.4735 19.624 72.1175 19.516 71.6215 19.516C71.2615 19.516 70.9695 19.588 70.7455 19.732C70.5295 19.876 70.3775 20.06 70.2895 20.284C70.2415 20.404 70.1575 20.464 70.0375 20.464H69.4975C69.4095 20.464 69.3415 20.44 69.2935 20.392C69.2535 20.336 69.2335 20.272 69.2335 20.2C69.2335 20.08 69.2775 19.932 69.3655 19.756C69.4615 19.58 69.6055 19.408 69.7975 19.24C69.9895 19.072 70.2335 18.932 70.5295 18.82C70.8335 18.7 71.2015 18.64 71.6335 18.64C72.1135 18.64 72.5175 18.704 72.8455 18.832C73.1735 18.952 73.4295 19.116 73.6135 19.324C73.8055 19.532 73.9415 19.768 74.0215 20.032C74.1095 20.296 74.1535 20.564 74.1535 20.836V24.724C74.1535 24.804 74.1255 24.872 74.0695 24.928C74.0215 24.976 73.9575 25 73.8775 25H73.3255C73.2375 25 73.1695 24.976 73.1215 24.928C73.0735 24.872 73.0495 24.804 73.0495 24.724V24.208C72.9455 24.352 72.8055 24.496 72.6295 24.64C72.4535 24.776 72.2335 24.892 71.9695 24.988C71.7055 25.076 71.3815 25.12 70.9975 25.12ZM71.2495 24.22C71.5775 24.22 71.8775 24.152 72.1495 24.016C72.4215 23.872 72.6335 23.652 72.7855 23.356C72.9455 23.06 73.0255 22.688 73.0255 22.24V21.904L71.6335 22.108C71.0655 22.188 70.6375 22.324 70.3495 22.516C70.0615 22.7 69.9175 22.936 69.9175 23.224C69.9175 23.448 69.9815 23.636 70.1095 23.788C70.2455 23.932 70.4135 24.04 70.6135 24.112C70.8215 24.184 71.0335 24.22 71.2495 24.22ZM76.8417 27.28C76.7777 27.28 76.7217 27.256 76.6737 27.208C76.6257 27.16 76.6017 27.104 76.6017 27.04C76.6017 27.008 76.6057 26.976 76.6137 26.944C76.6217 26.912 76.6377 26.872 76.6617 26.824L77.5857 24.628L75.2937 19.216C75.2537 19.12 75.2337 19.052 75.2337 19.012C75.2337 18.94 75.2577 18.88 75.3057 18.832C75.3537 18.784 75.4137 18.76 75.4857 18.76H76.0737C76.1537 18.76 76.2177 18.78 76.2657 18.82C76.3137 18.86 76.3457 18.908 76.3617 18.964L78.1857 23.332L80.0577 18.964C80.0817 18.908 80.1137 18.86 80.1537 18.82C80.2017 18.78 80.2697 18.76 80.3577 18.76H80.9217C80.9937 18.76 81.0537 18.784 81.1017 18.832C81.1497 18.88 81.1737 18.936 81.1737 19C81.1737 19.04 81.1537 19.112 81.1137 19.216L77.7057 27.076C77.6817 27.132 77.6457 27.18 77.5977 27.22C77.5577 27.26 77.4937 27.28 77.4057 27.28H76.8417ZM82.635 25C82.555 25 82.487 24.976 82.431 24.928C82.383 24.872 82.359 24.804 82.359 24.724V19.036C82.359 18.956 82.383 18.892 82.431 18.844C82.487 18.788 82.555 18.76 82.635 18.76H83.175C83.255 18.76 83.319 18.788 83.367 18.844C83.423 18.892 83.451 18.956 83.451 19.036V19.456C83.635 19.208 83.867 19.012 84.147 18.868C84.427 18.716 84.763 18.64 85.155 18.64C86.059 18.632 86.699 19 87.075 19.744C87.259 19.408 87.527 19.14 87.879 18.94C88.231 18.74 88.631 18.64 89.079 18.64C89.495 18.64 89.871 18.736 90.207 18.928C90.551 19.12 90.819 19.412 91.011 19.804C91.211 20.188 91.311 20.672 91.311 21.256V24.724C91.311 24.804 91.283 24.872 91.227 24.928C91.179 24.976 91.115 25 91.035 25H90.471C90.391 25 90.323 24.976 90.267 24.928C90.219 24.872 90.195 24.804 90.195 24.724V21.364C90.195 20.916 90.131 20.564 90.003 20.308C89.875 20.052 89.703 19.872 89.487 19.768C89.271 19.664 89.035 19.612 88.779 19.612C88.571 19.612 88.359 19.664 88.143 19.768C87.927 19.872 87.747 20.052 87.603 20.308C87.467 20.564 87.399 20.916 87.399 21.364V24.724C87.399 24.804 87.371 24.872 87.315 24.928C87.267 24.976 87.203 25 87.123 25H86.559C86.479 25 86.411 24.976 86.355 24.928C86.307 24.872 86.283 24.804 86.283 24.724V21.364C86.283 20.916 86.215 20.564 86.079 20.308C85.943 20.052 85.767 19.872 85.551 19.768C85.335 19.664 85.107 19.612 84.867 19.612C84.659 19.612 84.447 19.664 84.231 19.768C84.015 19.872 83.835 20.052 83.691 20.308C83.555 20.564 83.487 20.912 83.487 21.352V24.724C83.487 24.804 83.459 24.872 83.403 24.928C83.355 24.976 83.291 25 83.211 25H82.635ZM95.5071 25.12C94.6831 25.12 94.0271 24.868 93.5391 24.364C93.0511 23.852 92.7831 23.156 92.7351 22.276C92.7271 22.172 92.7231 22.04 92.7231 21.88C92.7231 21.712 92.7271 21.576 92.7351 21.472C92.7671 20.904 92.8991 20.408 93.1311 19.984C93.3631 19.552 93.6791 19.22 94.0791 18.988C94.4871 18.756 94.9631 18.64 95.5071 18.64C96.1151 18.64 96.6231 18.768 97.0311 19.024C97.4471 19.28 97.7631 19.644 97.9791 20.116C98.1951 20.588 98.3031 21.14 98.3031 21.772V21.976C98.3031 22.064 98.2751 22.132 98.2191 22.18C98.1711 22.228 98.1071 22.252 98.0271 22.252H93.8751C93.8751 22.26 93.8751 22.276 93.8751 22.3C93.8751 22.324 93.8751 22.344 93.8751 22.36C93.8911 22.688 93.9631 22.996 94.0911 23.284C94.2191 23.564 94.4031 23.792 94.6431 23.968C94.8831 24.144 95.1711 24.232 95.5071 24.232C95.7951 24.232 96.0351 24.188 96.2271 24.1C96.4191 24.012 96.5751 23.916 96.6951 23.812C96.8151 23.7 96.8951 23.616 96.9351 23.56C97.0071 23.456 97.0631 23.396 97.1031 23.38C97.1431 23.356 97.2071 23.344 97.2951 23.344H97.8711C97.9511 23.344 98.0151 23.368 98.0631 23.416C98.1191 23.456 98.1431 23.516 98.1351 23.596C98.1271 23.716 98.0631 23.864 97.9431 24.04C97.8231 24.208 97.6511 24.376 97.4271 24.544C97.2031 24.712 96.9311 24.852 96.6111 24.964C96.2911 25.068 95.9231 25.12 95.5071 25.12ZM93.8751 21.424H97.1631V21.388C97.1631 21.028 97.0951 20.708 96.9591 20.428C96.8311 20.148 96.6431 19.928 96.3951 19.768C96.1471 19.6 95.8511 19.516 95.5071 19.516C95.1631 19.516 94.8671 19.6 94.6191 19.768C94.3791 19.928 94.1951 20.148 94.0671 20.428C93.9391 20.708 93.8751 21.028 93.8751 21.388V21.424ZM100.014 25C99.9339 25 99.8659 24.976 99.8099 24.928C99.7619 24.872 99.7379 24.804 99.7379 24.724V19.036C99.7379 18.956 99.7619 18.892 99.8099 18.844C99.8659 18.788 99.9339 18.76 100.014 18.76H100.578C100.658 18.76 100.722 18.788 100.77 18.844C100.826 18.892 100.854 18.956 100.854 19.036V19.564C101.062 19.292 101.322 19.072 101.634 18.904C101.954 18.728 102.362 18.64 102.858 18.64C103.378 18.64 103.818 18.756 104.178 18.988C104.546 19.212 104.822 19.528 105.006 19.936C105.19 20.336 105.282 20.804 105.282 21.34V24.724C105.282 24.804 105.258 24.872 105.21 24.928C105.162 24.976 105.098 25 105.018 25H104.418C104.338 25 104.27 24.976 104.214 24.928C104.166 24.872 104.142 24.804 104.142 24.724V21.4C104.142 20.84 104.006 20.404 103.734 20.092C103.462 19.772 103.062 19.612 102.534 19.612C102.038 19.612 101.638 19.772 101.334 20.092C101.038 20.404 100.89 20.84 100.89 21.4V24.724C100.89 24.804 100.862 24.872 100.806 24.928C100.758 24.976 100.694 25 100.614 25H100.014ZM109.369 25C108.921 25 108.557 24.916 108.277 24.748C107.997 24.572 107.793 24.328 107.665 24.016C107.537 23.696 107.473 23.32 107.473 22.888V19.72H106.537C106.457 19.72 106.389 19.696 106.333 19.648C106.285 19.592 106.261 19.524 106.261 19.444V19.036C106.261 18.956 106.285 18.892 106.333 18.844C106.389 18.788 106.457 18.76 106.537 18.76H107.473V16.756C107.473 16.676 107.497 16.612 107.545 16.564C107.601 16.508 107.669 16.48 107.749 16.48H108.313C108.393 16.48 108.457 16.508 108.505 16.564C108.561 16.612 108.589 16.676 108.589 16.756V18.76H110.077C110.157 18.76 110.221 18.788 110.269 18.844C110.325 18.892 110.353 18.956 110.353 19.036V19.444C110.353 19.524 110.325 19.592 110.269 19.648C110.221 19.696 110.157 19.72 110.077 19.72H108.589V22.804C108.589 23.18 108.653 23.476 108.781 23.692C108.909 23.908 109.137 24.016 109.465 24.016H110.197C110.277 24.016 110.341 24.044 110.389 24.1C110.445 24.148 110.473 24.212 110.473 24.292V24.724C110.473 24.804 110.445 24.872 110.389 24.928C110.341 24.976 110.277 25 110.197 25H109.369ZM20.1309 39C20.0429 39 19.9749 38.976 19.9269 38.928C19.8789 38.872 19.8549 38.804 19.8549 38.724V30.888C19.8549 30.8 19.8789 30.732 19.9269 30.684C19.9749 30.628 20.0429 30.6 20.1309 30.6H23.1789C23.7709 30.6 24.2829 30.696 24.7149 30.888C25.1549 31.08 25.4949 31.368 25.7349 31.752C25.9749 32.128 26.0949 32.6 26.0949 33.168C26.0949 33.736 25.9749 34.208 25.7349 34.584C25.4949 34.96 25.1549 35.244 24.7149 35.436C24.2829 35.628 23.7709 35.724 23.1789 35.724H21.0549V38.724C21.0549 38.804 21.0269 38.872 20.9709 38.928C20.9229 38.976 20.8549 39 20.7669 39H20.1309ZM21.0429 34.716H23.1189C23.7109 34.716 24.1549 34.584 24.4509 34.32C24.7469 34.056 24.8949 33.672 24.8949 33.168C24.8949 32.672 24.7509 32.288 24.4629 32.016C24.1749 31.744 23.7269 31.608 23.1189 31.608H21.0429V34.716ZM27.6861 39C27.6061 39 27.5381 38.976 27.4821 38.928C27.4341 38.872 27.4101 38.804 27.4101 38.724V30.756C27.4101 30.676 27.4341 30.612 27.4821 30.564C27.5381 30.508 27.6061 30.48 27.6861 30.48H28.2501C28.3381 30.48 28.4061 30.508 28.4541 30.564C28.5021 30.612 28.5261 30.676 28.5261 30.756V38.724C28.5261 38.804 28.5021 38.872 28.4541 38.928C28.4061 38.976 28.3381 39 28.2501 39H27.6861ZM32.0561 39.12C31.6561 39.12 31.2921 39.04 30.9641 38.88C30.6361 38.72 30.3721 38.504 30.1721 38.232C29.9721 37.96 29.8721 37.652 29.8721 37.308C29.8721 36.756 30.0961 36.316 30.5441 35.988C30.9921 35.66 31.5761 35.444 32.2961 35.34L34.0841 35.088V34.74C34.0841 34.356 33.9721 34.056 33.7481 33.84C33.5321 33.624 33.1761 33.516 32.6801 33.516C32.3201 33.516 32.0281 33.588 31.8041 33.732C31.5881 33.876 31.4361 34.06 31.3481 34.284C31.3001 34.404 31.2161 34.464 31.0961 34.464H30.5561C30.4681 34.464 30.4001 34.44 30.3521 34.392C30.3121 34.336 30.2921 34.272 30.2921 34.2C30.2921 34.08 30.3361 33.932 30.4241 33.756C30.5201 33.58 30.6641 33.408 30.8561 33.24C31.0481 33.072 31.2921 32.932 31.5881 32.82C31.8921 32.7 32.2601 32.64 32.6921 32.64C33.1721 32.64 33.5761 32.704 33.9041 32.832C34.2321 32.952 34.4881 33.116 34.6721 33.324C34.8641 33.532 35.0001 33.768 35.0801 34.032C35.1681 34.296 35.2121 34.564 35.2121 34.836V38.724C35.2121 38.804 35.1841 38.872 35.1281 38.928C35.0801 38.976 35.0161 39 34.9361 39H34.3841C34.2961 39 34.2281 38.976 34.1801 38.928C34.1321 38.872 34.1081 38.804 34.1081 38.724V38.208C34.0041 38.352 33.8641 38.496 33.6881 38.64C33.5121 38.776 33.2921 38.892 33.0281 38.988C32.7641 39.076 32.4401 39.12 32.0561 39.12ZM32.3081 38.22C32.6361 38.22 32.9361 38.152 33.2081 38.016C33.4801 37.872 33.6921 37.652 33.8441 37.356C34.0041 37.06 34.0841 36.688 34.0841 36.24V35.904L32.6921 36.108C32.1241 36.188 31.6961 36.324 31.4081 36.516C31.1201 36.7 30.9761 36.936 30.9761 37.224C30.9761 37.448 31.0401 37.636 31.1681 37.788C31.3041 37.932 31.4721 38.04 31.6721 38.112C31.8801 38.184 32.0921 38.22 32.3081 38.22ZM39.3146 39C38.8666 39 38.5026 38.916 38.2226 38.748C37.9426 38.572 37.7386 38.328 37.6106 38.016C37.4826 37.696 37.4186 37.32 37.4186 36.888V33.72H36.4826C36.4026 33.72 36.3346 33.696 36.2786 33.648C36.2306 33.592 36.2066 33.524 36.2066 33.444V33.036C36.2066 32.956 36.2306 32.892 36.2786 32.844C36.3346 32.788 36.4026 32.76 36.4826 32.76H37.4186V30.756C37.4186 30.676 37.4426 30.612 37.4906 30.564C37.5466 30.508 37.6146 30.48 37.6946 30.48H38.2586C38.3386 30.48 38.4026 30.508 38.4506 30.564C38.5066 30.612 38.5346 30.676 38.5346 30.756V32.76H40.0226C40.1026 32.76 40.1666 32.788 40.2146 32.844C40.2706 32.892 40.2986 32.956 40.2986 33.036V33.444C40.2986 33.524 40.2706 33.592 40.2146 33.648C40.1666 33.696 40.1026 33.72 40.0226 33.72H38.5346V36.804C38.5346 37.18 38.5986 37.476 38.7266 37.692C38.8546 37.908 39.0826 38.016 39.4106 38.016H40.1426C40.2226 38.016 40.2866 38.044 40.3346 38.1C40.3906 38.148 40.4186 38.212 40.4186 38.292V38.724C40.4186 38.804 40.3906 38.872 40.3346 38.928C40.2866 38.976 40.2226 39 40.1426 39H39.3146ZM42.4661 39C42.3861 39 42.3181 38.976 42.2621 38.928C42.2141 38.872 42.1901 38.804 42.1901 38.724V33.72H41.1701C41.0901 33.72 41.0221 33.696 40.9661 33.648C40.9181 33.592 40.8941 33.524 40.8941 33.444V33.036C40.8941 32.956 40.9181 32.892 40.9661 32.844C41.0221 32.788 41.0901 32.76 41.1701 32.76H42.1901V32.16C42.1901 31.752 42.2581 31.396 42.3941 31.092C42.5301 30.78 42.7461 30.54 43.0421 30.372C43.3461 30.204 43.7501 30.12 44.2541 30.12H44.9741C45.0541 30.12 45.1181 30.148 45.1661 30.204C45.2141 30.252 45.2381 30.316 45.2381 30.396V30.804C45.2381 30.884 45.2141 30.952 45.1661 31.008C45.1181 31.056 45.0541 31.08 44.9741 31.08H44.2781C43.9021 31.08 43.6461 31.18 43.5101 31.38C43.3741 31.572 43.3061 31.852 43.3061 32.22V32.76H44.8541C44.9341 32.76 44.9981 32.788 45.0461 32.844C45.0941 32.892 45.1181 32.956 45.1181 33.036V33.444C45.1181 33.524 45.0941 33.592 45.0461 33.648C44.9981 33.696 44.9341 33.72 44.8541 33.72H43.3061V38.724C43.3061 38.804 43.2781 38.872 43.2221 38.928C43.1741 38.976 43.1101 39 43.0301 39H42.4661ZM48.6221 39.12C48.0141 39.12 47.5061 39.004 47.0981 38.772C46.6901 38.54 46.3781 38.22 46.1621 37.812C45.9461 37.396 45.8261 36.924 45.8021 36.396C45.7941 36.26 45.7901 36.088 45.7901 35.88C45.7901 35.664 45.7941 35.492 45.8021 35.364C45.8261 34.828 45.9461 34.356 46.1621 33.948C46.3861 33.54 46.7021 33.22 47.1101 32.988C47.5181 32.756 48.0221 32.64 48.6221 32.64C49.2221 32.64 49.7261 32.756 50.1341 32.988C50.5421 33.22 50.8541 33.54 51.0701 33.948C51.2941 34.356 51.4181 34.828 51.4421 35.364C51.4501 35.492 51.4541 35.664 51.4541 35.88C51.4541 36.088 51.4501 36.26 51.4421 36.396C51.4181 36.924 51.2981 37.396 51.0821 37.812C50.8661 38.22 50.5541 38.54 50.1461 38.772C49.7381 39.004 49.2301 39.12 48.6221 39.12ZM48.6221 38.196C49.1181 38.196 49.5141 38.04 49.8101 37.728C50.1061 37.408 50.2661 36.944 50.2901 36.336C50.2981 36.216 50.3021 36.064 50.3021 35.88C50.3021 35.696 50.2981 35.544 50.2901 35.424C50.2661 34.816 50.1061 34.356 49.8101 34.044C49.5141 33.724 49.1181 33.564 48.6221 33.564C48.1261 33.564 47.7261 33.724 47.4221 34.044C47.1261 34.356 46.9701 34.816 46.9541 35.424C46.9461 35.544 46.9421 35.696 46.9421 35.88C46.9421 36.064 46.9461 36.216 46.9541 36.336C46.9701 36.944 47.1261 37.408 47.4221 37.728C47.7261 38.04 48.1261 38.196 48.6221 38.196ZM53.2327 39C53.1527 39 53.0847 38.976 53.0287 38.928C52.9807 38.872 52.9567 38.804 52.9567 38.724V33.048C52.9567 32.968 52.9807 32.9 53.0287 32.844C53.0847 32.788 53.1527 32.76 53.2327 32.76H53.7847C53.8647 32.76 53.9327 32.788 53.9887 32.844C54.0447 32.9 54.0727 32.968 54.0727 33.048V33.576C54.2327 33.304 54.4527 33.1 54.7327 32.964C55.0127 32.828 55.3487 32.76 55.7407 32.76H56.2207C56.3007 32.76 56.3647 32.788 56.4127 32.844C56.4607 32.892 56.4847 32.956 56.4847 33.036V33.528C56.4847 33.608 56.4607 33.672 56.4127 33.72C56.3647 33.768 56.3007 33.792 56.2207 33.792H55.5007C55.0687 33.792 54.7287 33.92 54.4807 34.176C54.2327 34.424 54.1087 34.764 54.1087 35.196V38.724C54.1087 38.804 54.0807 38.872 54.0247 38.928C53.9687 38.976 53.9007 39 53.8207 39H53.2327ZM57.7913 39C57.7113 39 57.6433 38.976 57.5873 38.928C57.5393 38.872 57.5153 38.804 57.5153 38.724V33.036C57.5153 32.956 57.5393 32.892 57.5873 32.844C57.6433 32.788 57.7113 32.76 57.7913 32.76H58.3313C58.4113 32.76 58.4753 32.788 58.5233 32.844C58.5793 32.892 58.6073 32.956 58.6073 33.036V33.456C58.7913 33.208 59.0233 33.012 59.3033 32.868C59.5833 32.716 59.9193 32.64 60.3113 32.64C61.2153 32.632 61.8553 33 62.2313 33.744C62.4153 33.408 62.6833 33.14 63.0353 32.94C63.3873 32.74 63.7873 32.64 64.2353 32.64C64.6513 32.64 65.0273 32.736 65.3633 32.928C65.7073 33.12 65.9753 33.412 66.1673 33.804C66.3673 34.188 66.4673 34.672 66.4673 35.256V38.724C66.4673 38.804 66.4393 38.872 66.3833 38.928C66.3353 38.976 66.2713 39 66.1913 39H65.6273C65.5473 39 65.4793 38.976 65.4233 38.928C65.3753 38.872 65.3513 38.804 65.3513 38.724V35.364C65.3513 34.916 65.2873 34.564 65.1593 34.308C65.0313 34.052 64.8593 33.872 64.6433 33.768C64.4273 33.664 64.1913 33.612 63.9353 33.612C63.7273 33.612 63.5153 33.664 63.2993 33.768C63.0833 33.872 62.9033 34.052 62.7593 34.308C62.6233 34.564 62.5553 34.916 62.5553 35.364V38.724C62.5553 38.804 62.5273 38.872 62.4713 38.928C62.4233 38.976 62.3593 39 62.2793 39H61.7153C61.6353 39 61.5673 38.976 61.5113 38.928C61.4633 38.872 61.4393 38.804 61.4393 38.724V35.364C61.4393 34.916 61.3713 34.564 61.2353 34.308C61.0993 34.052 60.9233 33.872 60.7073 33.768C60.4913 33.664 60.2633 33.612 60.0233 33.612C59.8153 33.612 59.6033 33.664 59.3873 33.768C59.1713 33.872 58.9913 34.052 58.8473 34.308C58.7113 34.564 58.6433 34.912 58.6433 35.352V38.724C58.6433 38.804 58.6153 38.872 58.5593 38.928C58.5113 38.976 58.4473 39 58.3673 39H57.7913Z" fill="#FFC200"/>
<path d="M6.95673 10.5702L9.27797 7.17972C9.39734 7.00519 9.39734 6.69501 9.27797 6.52089L6.95673 3.13036C6.85473 2.98114 6.9178 2.7002 7.0533 2.7002H9.12326C9.234 2.7002 9.34117 2.76729 9.42444 2.88914L11.9106 6.52089C12.03 6.69501 12.03 7.00539 11.9106 7.17972L9.42444 10.8111C9.34104 10.9329 9.234 11 9.12326 11H7.0533C6.9178 11 6.85473 10.7195 6.95673 10.5702Z" fill="#8272B3"/>
<path d="M11.2909 10.5702L13.6122 7.17972C13.7315 7.00519 13.7315 6.69501 13.6122 6.52089L11.2909 3.13036C11.1889 2.98114 11.252 2.7002 11.3875 2.7002H13.4574C13.5682 2.7002 13.6753 2.76729 13.7586 2.88914L16.2448 6.52089C16.3642 6.69501 16.3642 7.00539 16.2448 7.17972L13.7586 10.8111C13.6752 10.9329 13.5682 11 13.4574 11H11.3875C11.252 11 11.1889 10.7195 11.2909 10.5702Z" fill="#8272B3"/>
<path d="M4.25791 2.8584C4.15022 3.03767 4.15022 3.32829 4.25791 3.50756C4.36548 3.68724 4.53999 3.68724 4.64756 3.50756C4.75526 3.32829 4.75526 3.03767 4.64756 2.8584C4.54012 2.67871 4.36561 2.67871 4.25791 2.8584Z" fill="#8272B3"/>
<path d="M4.97094 4.08056C4.86324 4.25983 4.86324 4.55045 4.97094 4.72973C5.07851 4.90941 5.25302 4.90941 5.36059 4.72973C5.46829 4.55045 5.46829 4.25983 5.36059 4.08056C5.25302 3.90088 5.07851 3.90088 4.97094 4.08056Z" fill="#8272B3"/>
<path d="M5.7129 5.30291C5.60532 5.48259 5.60532 5.77321 5.7129 5.95248C5.82059 6.13217 5.9951 6.13217 6.10267 5.95248C6.21037 5.77321 6.21037 5.48259 6.10267 5.30291C5.99522 5.12364 5.82059 5.12364 5.7129 5.30291Z" fill="#8272B3"/>
<path d="M6.43751 6.52459C6.32993 6.70427 6.32993 6.99489 6.43751 7.17416C6.5452 7.35343 6.71971 7.35343 6.82728 7.17416C6.93485 6.99489 6.93485 6.70427 6.82728 6.52459C6.71971 6.34532 6.5452 6.34532 6.43751 6.52459Z" fill="#8272B3"/>
<path d="M4.25791 10.8416C4.15022 10.6624 4.15022 10.3713 4.25791 10.1921C4.36548 10.0128 4.53999 10.0128 4.64756 10.1921C4.75526 10.3713 4.75526 10.6624 4.64756 10.8416C4.54012 11.0209 4.36561 11.0209 4.25791 10.8416Z" fill="#8272B3"/>
<path d="M4.97094 9.61996C4.86324 9.44069 4.86324 9.15007 4.97094 8.97039C5.07851 8.79112 5.25302 8.79112 5.36059 8.97039C5.46829 9.15007 5.46829 9.44069 5.36059 9.61996C5.25302 9.79923 5.07851 9.79923 4.97094 9.61996Z" fill="#8272B3"/>
<path d="M5.7129 8.39731C5.60532 8.21804 5.60532 7.92742 5.7129 7.74773C5.82059 7.56846 5.9951 7.56846 6.10267 7.74773C6.21037 7.92742 6.21037 8.21804 6.10267 8.39731C5.99522 8.57658 5.82059 8.57658 5.7129 8.39731Z" fill="#8272B3"/>
<path d="M6.43751 7.17416C6.32993 6.99489 6.32993 6.70427 6.43751 6.52459C6.5452 6.34532 6.71971 6.34532 6.82728 6.52459C6.93485 6.70427 6.93485 6.99489 6.82728 7.17416C6.71971 7.35343 6.5452 7.35343 6.43751 7.17416Z" fill="#8272B3"/>
<path d="M2.63486 2.8584C2.52717 3.03767 2.52717 3.32829 2.63486 3.50756C2.74244 3.68724 2.91695 3.68724 3.02452 3.50756C3.13221 3.32829 3.13221 3.03767 3.02452 2.8584C2.91695 2.67871 2.74244 2.67871 2.63486 2.8584Z" fill="#8272B3"/>
<path d="M3.36552 4.08056C3.25782 4.25983 3.25782 4.55045 3.36552 4.72973C3.47309 4.90941 3.6476 4.90941 3.75517 4.72973C3.86287 4.55045 3.86287 4.25983 3.75517 4.08056C3.6476 3.90088 3.47309 3.90088 3.36552 4.08056Z" fill="#8272B3"/>
<path d="M4.09385 5.30291C3.98615 5.48259 3.98615 5.77321 4.09385 5.95248C4.20142 6.13217 4.37593 6.13217 4.4835 5.95248C4.5912 5.77321 4.5912 5.48259 4.4835 5.30291C4.37593 5.12364 4.20142 5.12364 4.09385 5.30291Z" fill="#8272B3"/>
<path d="M4.83204 6.52459C4.72447 6.70427 4.72447 6.99489 4.83204 7.17416C4.93973 7.35343 5.11424 7.35343 5.22181 7.17416C5.32939 6.99489 5.32939 6.70427 5.22181 6.52459C5.11424 6.34532 4.93973 6.34532 4.83204 6.52459Z" fill="#8272B3"/>
<path d="M2.63486 10.8416C2.52717 10.6624 2.52717 10.3713 2.63486 10.1921C2.74244 10.0128 2.91695 10.0128 3.02452 10.1921C3.13221 10.3713 3.13221 10.6624 3.02452 10.8416C2.91695 11.0209 2.74244 11.0209 2.63486 10.8416Z" fill="#8272B3"/>
<path d="M3.36552 9.61996C3.25782 9.44069 3.25782 9.15007 3.36552 8.97039C3.47309 8.79112 3.6476 8.79112 3.75517 8.97039C3.86287 9.15007 3.86287 9.44069 3.75517 9.61996C3.6476 9.79923 3.47309 9.79923 3.36552 9.61996Z" fill="#8272B3"/>
<path d="M4.09385 8.39731C3.98615 8.21804 3.98615 7.92742 4.09385 7.74773C4.20142 7.56846 4.37593 7.56846 4.4835 7.74773C4.5912 7.92742 4.5912 8.21804 4.4835 8.39731C4.37593 8.57658 4.20142 8.57658 4.09385 8.39731Z" fill="#8272B3"/>
<path d="M4.83204 7.17416C4.72447 6.99489 4.72447 6.70427 4.83204 6.52459C4.93973 6.34532 5.11424 6.34532 5.22181 6.52459C5.32939 6.70427 5.32939 6.99489 5.22181 7.17416C5.11424 7.35343 4.93973 7.35343 4.83204 7.17416Z" fill="#8272B3"/>
<path d="M1.02354 2.8584C0.91584 3.03767 0.91584 3.32829 1.02354 3.50756C1.13111 3.68724 1.30562 3.68724 1.41331 3.50756C1.52089 3.32829 1.52089 3.03767 1.41331 2.8584C1.30562 2.67871 1.13111 2.67871 1.02354 2.8584Z" fill="#8272B3"/>
<path d="M1.74229 4.08056C1.63459 4.25983 1.63459 4.55045 1.74229 4.72973C1.84986 4.90941 2.02437 4.90941 2.13194 4.72973C2.23964 4.55045 2.23964 4.25983 2.13194 4.08056C2.02437 3.90088 1.84986 3.90088 1.74229 4.08056Z" fill="#8272B3"/>
<path d="M2.47666 5.30291C2.36897 5.48259 2.36897 5.77321 2.47666 5.95248C2.58423 6.13217 2.75874 6.13217 2.86632 5.95248C2.97401 5.77321 2.97401 5.48259 2.86632 5.30291C2.75874 5.12364 2.58423 5.12364 2.47666 5.30291Z" fill="#8272B3"/>
<path d="M3.22471 6.52459C3.11701 6.70427 3.11701 6.99489 3.22471 7.17416C3.33228 7.35343 3.50679 7.35343 3.61436 7.17416C3.72206 6.99489 3.72206 6.70427 3.61436 6.52459C3.50679 6.34532 3.33228 6.34532 3.22471 6.52459Z" fill="#8272B3"/>
<path d="M1.02354 10.8416C0.91584 10.6624 0.91584 10.3713 1.02354 10.1921C1.13111 10.0128 1.30562 10.0128 1.41331 10.1921C1.52089 10.3713 1.52089 10.6624 1.41331 10.8416C1.30562 11.0209 1.13111 11.0209 1.02354 10.8416Z" fill="#8272B3"/>
<path d="M1.74229 9.61996C1.63459 9.44069 1.63459 9.15007 1.74229 8.97039C1.84986 8.79112 2.02437 8.79112 2.13194 8.97039C2.23964 9.15007 2.23964 9.44069 2.13194 9.61996C2.02437 9.79923 1.84986 9.79923 1.74229 9.61996Z" fill="#8272B3"/>
<path d="M2.47666 8.39731C2.36897 8.21804 2.36897 7.92742 2.47666 7.74773C2.58423 7.56846 2.75874 7.56846 2.86632 7.74773C2.97401 7.92742 2.97401 8.21804 2.86632 8.39731C2.75874 8.57658 2.58423 8.57658 2.47666 8.39731Z" fill="#8272B3"/>
<path d="M3.22471 7.17416C3.11701 6.99489 3.11701 6.70427 3.22471 6.52459C3.33228 6.34532 3.50679 6.34532 3.61436 6.52459C3.72206 6.70427 3.72206 6.99489 3.61436 7.17416C3.50679 7.35343 3.33228 7.35343 3.22471 7.17416Z" fill="#8272B3"/>
<defs>
<linearGradient id="paint0_linear_1_1858" x1="117.718" y1="27.1465" x2="18.7453" y2="26.7671" gradientUnits="userSpaceOnUse">
<stop stop-color="#5EC6CC"/>
<stop offset="0.13" stop-color="#56C2CE"/>
<stop offset="0.31" stop-color="#43B8D5"/>
<stop offset="0.51" stop-color="#26A9E0"/>
<stop offset="0.53" stop-color="#29AADE"/>
<stop offset="0.84" stop-color="#4FBED1"/>
<stop offset="1" stop-color="#5EC6CC"/>
</linearGradient>
</defs>
</svg>
