<svg width="31" height="31" viewBox="0 0 31 31" fill="none" xmlns="http://www.w3.org/2000/svg">
<path d="M24.6062 6.33693L24.996 3.73959L27.2984 1.41064L27.3884 2.71476L27.3054 2.48055L27.2018 1.50826L28.0096 0.691162L28.1791 2.7228L24.6062 6.33693Z" fill="#414042"/>
<path d="M28.4664 3.00684L24.8936 6.62095L27.4864 6.20127L28.401 5.27605L29.4126 4.25279L29.6922 3.96996L29.8163 3.84437L30.5 3.15284L28.4664 3.00684Z" fill="#414042"/>
<path d="M13.0591 22.6109C11.7606 22.6109 10.5399 22.1053 9.62177 21.1872C8.70365 20.2692 8.198 19.0485 8.198 17.7501C8.198 16.4516 8.70363 15.2309 9.62175 14.3129C10.5399 13.3948 11.7606 12.8892 13.0591 12.8892C14.0188 12.8892 14.9469 13.1685 15.7431 13.697C15.9819 13.8554 16.047 14.1774 15.8885 14.4162C15.73 14.6549 15.408 14.72 15.1693 14.5615C14.5437 14.1463 13.814 13.9268 13.0591 13.9268C10.9509 13.9268 9.2357 15.6419 9.2357 17.75C9.2357 19.8582 10.9509 21.5732 13.0591 21.5732C15.1674 21.5732 16.8825 19.8582 16.8825 17.75C16.8825 17.2699 16.7949 16.8022 16.622 16.3599C16.5177 16.093 16.6495 15.7921 16.9164 15.6878C17.1834 15.5835 17.4842 15.7153 17.5886 15.9822C17.8087 16.5454 17.9202 17.1402 17.9202 17.75C17.9202 19.0484 17.4146 20.2691 16.4965 21.1872C15.5783 22.1053 14.3576 22.6109 13.0591 22.6109Z" fill="#414042"/>
<path d="M13.0593 26.7041C11.8507 26.7041 10.678 26.4673 9.5737 26.0003C8.50736 25.5493 7.5498 24.9038 6.72761 24.0816C5.90544 23.2595 5.25987 22.302 4.80885 21.2357C4.34181 20.1315 4.10498 18.9588 4.10498 17.7502C4.10498 16.5417 4.34181 15.369 4.80885 14.2648C5.25987 13.1984 5.90544 12.2409 6.72761 11.4188C7.5498 10.5966 8.50736 9.95105 9.57368 9.50002C10.678 9.03296 11.8507 8.79614 13.0593 8.79614C14.1067 8.79614 15.1328 8.97542 16.109 9.32902C17.0524 9.67073 17.927 10.1665 18.7085 10.8027C18.9307 10.9836 18.9642 11.3104 18.7833 11.5326C18.6024 11.7548 18.2756 11.7883 18.0534 11.6074C16.6483 10.4637 14.8748 9.8338 13.0593 9.8338C8.69406 9.8338 5.14267 13.3851 5.14267 17.7502C5.14267 22.1153 8.69406 25.6665 13.0593 25.6665C17.4246 25.6665 20.9761 22.1153 20.9761 17.7502C20.9761 16.2089 20.5331 14.7153 19.695 13.4308C19.5384 13.1908 19.6061 12.8694 19.8461 12.7128C20.086 12.5562 20.4075 12.6238 20.5641 12.8638C21.5125 14.3174 22.0138 16.007 22.0138 17.7502C22.0138 18.9588 21.777 20.1315 21.3099 21.2357C20.8589 22.302 20.2133 23.2595 19.3911 24.0816C18.5689 24.9037 17.6113 25.5493 16.5449 26.0003C15.4407 26.4673 14.268 26.7041 13.0593 26.7041Z" fill="#414042"/>
<path d="M13.0593 30.3089C11.3641 30.3089 9.71923 29.9768 8.17051 29.3218C6.67489 28.6892 5.33181 27.7838 4.17856 26.6306C3.02529 25.4774 2.1198 24.1344 1.48719 22.6388C0.832157 21.0902 0.5 19.4455 0.5 17.7503C0.5 16.0551 0.832137 14.4103 1.48719 12.8617C2.11978 11.3661 3.02529 10.0231 4.17854 8.86985C5.33181 7.71661 6.67489 6.81115 8.17051 6.17857C9.71921 5.52353 11.3641 5.19141 13.0593 5.19141C14.5962 5.19141 16.0976 5.46595 17.5219 6.00743C18.8977 6.53049 20.1618 7.28651 21.2793 8.2545C21.4959 8.44213 21.5193 8.7698 21.3317 8.98636C21.1441 9.20292 20.8164 9.2264 20.5998 9.03879C18.5082 7.22691 15.8303 6.22908 13.0593 6.22908C6.70629 6.22908 1.53773 11.3975 1.53773 17.7503C1.53773 24.103 6.70629 29.2713 13.0593 29.2713C19.4124 29.2713 24.5811 24.103 24.5811 17.7503C24.5811 15.2484 23.7929 12.8691 22.3016 10.8697C22.1303 10.64 22.1776 10.3149 22.4074 10.1436C22.637 9.9723 22.9621 10.0196 23.1335 10.2494C23.9248 11.3103 24.5398 12.4816 24.9616 13.7306C25.3977 15.0223 25.6188 16.3747 25.6188 17.7503C25.6188 19.4455 25.2867 21.0902 24.6316 22.6389C23.999 24.1344 23.0935 25.4774 21.9402 26.6306C20.7869 27.7838 19.4438 28.6893 17.9481 29.3218C16.3994 29.9768 14.7546 30.3089 13.0593 30.3089Z" fill="#414042"/>
<path d="M13.0736 21.3295C15.0587 21.3295 16.6679 19.7203 16.6679 17.7353C16.6679 15.7503 15.0587 14.1411 13.0736 14.1411C11.0885 14.1411 9.47925 15.7503 9.47925 17.7353C9.47925 19.7203 11.0885 21.3295 13.0736 21.3295Z" fill="#FFD85A"/>
<path d="M13.2885 18.6094C13.1699 18.6094 13.0512 18.5645 12.9602 18.4745C12.7768 18.2932 12.7751 17.9976 12.9564 17.8142L28.203 2.3916C28.3843 2.20821 28.68 2.20649 28.8633 2.38779C29.0468 2.5691 29.0485 2.86473 28.8672 3.04813L13.6206 18.4707C13.5293 18.5631 13.4089 18.6094 13.2885 18.6094Z" fill="#414042"/>
</svg>
