<svg width="31" height="33" viewBox="0 0 31 33" fill="none" xmlns="http://www.w3.org/2000/svg">
<path d="M19.6197 27.961H11.3802C11.1037 27.961 10.8796 27.7369 10.8796 27.4605C10.8796 27.1841 11.1037 26.96 11.3802 26.96H19.6197C19.8962 26.96 20.1203 27.1841 20.1203 27.4605C20.1203 27.7369 19.8962 27.961 19.6197 27.961Z" fill="#414042"/>
<path d="M18.8694 29.6442H12.1304C11.854 29.6442 11.6299 29.4201 11.6299 29.1436C11.6299 28.8672 11.854 28.6431 12.1304 28.6431H18.8694C19.1458 28.6431 19.3699 28.8672 19.3699 29.1436C19.3699 29.4201 19.1458 29.6442 18.8694 29.6442Z" fill="#414042"/>
<path d="M23.2362 14.8569C23.2362 16.1372 22.9218 17.4391 22.2899 18.5562C21.336 20.2405 20.5261 23.0398 20.1624 24.947C20.1077 25.2336 20.0453 25.5574 19.9458 25.8641H11.0508C10.9238 25.473 10.8575 25.0497 10.7924 24.6972C10.5453 23.3568 10.0018 21.0791 9.39365 19.8656C9.01739 19.1149 8.57069 18.3978 8.27023 17.6108C7.93478 16.7332 7.76392 15.7964 7.76392 14.8573C7.76392 10.585 11.2275 7.12158 15.5001 7.12158C19.7727 7.12158 23.2362 10.585 23.2362 14.8569Z" fill="#FFD85A"/>
<path d="M19.9456 26.3647H11.0506C10.8337 26.3647 10.6414 26.225 10.5745 26.0187C10.4556 25.6526 10.3881 25.2768 10.3285 24.9453C10.3188 24.8916 10.3094 24.8391 10.3 24.7881C10.0837 23.615 9.55524 21.3056 8.94595 20.0899C8.82705 19.8527 8.69698 19.6116 8.57119 19.3785C8.2987 18.8733 8.01687 18.351 7.80243 17.7893C7.44465 16.8534 7.26318 15.8668 7.26318 14.8574C7.26318 10.3159 10.9581 6.62109 15.4999 6.62109C20.0416 6.62109 23.7366 10.3157 23.7366 14.8569C23.7366 16.2688 23.3869 17.6332 22.7254 18.8027C21.8118 20.4159 21.0112 23.1672 20.6539 25.0408C20.5997 25.3248 20.5322 25.6781 20.4217 26.0187C20.3547 26.225 20.1625 26.3647 19.9456 26.3647ZM11.4318 25.3636H19.565C19.6063 25.1893 19.6397 25.0148 19.6705 24.8532C20.0551 22.8362 20.8795 20.0305 21.8542 18.3095C22.4224 17.305 22.7355 16.0787 22.7355 14.8569C22.7355 10.8677 19.4896 7.62218 15.4999 7.62218C11.5102 7.62218 8.26431 10.8679 8.26431 14.8574C8.26431 15.7442 8.42357 16.6105 8.73763 17.4321C8.92891 17.9331 9.18314 18.4043 9.45229 18.9031C9.58161 19.1428 9.71534 19.3906 9.84098 19.6414C10.5006 20.9575 11.0587 23.3816 11.2846 24.6065C11.2942 24.6589 11.3039 24.7129 11.3139 24.7682C11.3478 24.9573 11.3847 25.1624 11.4318 25.3636Z" fill="#414042"/>
<path d="M21.0667 14.8633C20.7978 14.8633 20.5756 14.6499 20.5666 14.3792C20.469 11.4165 17.2445 10.0398 17.2119 10.0263C16.957 9.92014 16.8358 9.62748 16.9415 9.37241C17.0472 9.1173 17.3391 8.99592 17.5944 9.10112C17.6337 9.11735 18.5693 9.50811 19.5222 10.3352C20.8104 11.4534 21.5176 12.8403 21.5672 14.3462C21.5764 14.6225 21.3597 14.8539 21.0834 14.8629C21.0778 14.8632 21.0722 14.8633 21.0667 14.8633Z" fill="#414042"/>
<path d="M18.8126 30.4842C18.8126 31.7571 17.3295 32.7891 15.4998 32.7891C13.6702 32.7891 12.1868 31.7571 12.1868 30.4842C12.1868 30.4816 12.1868 30.4787 12.1871 30.4761H18.8123C18.8126 30.4787 18.8126 30.4816 18.8126 30.4842Z" fill="#414042"/>
<path d="M15.5 5.3677C15.2519 5.3677 15.0508 5.16655 15.0508 4.91846V0.65993C15.0508 0.411843 15.2519 0.210693 15.5 0.210693C15.7482 0.210693 15.9493 0.411843 15.9493 0.65993V4.91846C15.9493 5.16655 15.7482 5.3677 15.5 5.3677Z" fill="#414042"/>
<path d="M30.0508 14.7295H25.792C25.5439 14.7295 25.3428 14.5284 25.3428 14.2803C25.3428 14.0322 25.5439 13.8311 25.792 13.8311H30.0508C30.2989 13.8311 30.5 14.0322 30.5 14.2803C30.5 14.5284 30.2989 14.7295 30.0508 14.7295Z" fill="#414042"/>
<path d="M5.20798 14.7295H0.949257C0.701133 14.7295 0.5 14.5284 0.5 14.2803C0.5 14.0322 0.701133 13.8311 0.949257 13.8311H5.20798C5.4561 13.8311 5.65724 14.0322 5.65724 14.2803C5.65724 14.5284 5.4561 14.7295 5.20798 14.7295Z" fill="#414042"/>
<path d="M7.21132 8.64193C7.11471 8.64193 7.01737 8.61092 6.9353 8.5469L3.57748 5.92752C3.38187 5.77488 3.34698 5.49258 3.4996 5.29695C3.65222 5.10131 3.93451 5.0665 4.13018 5.21906L7.48799 7.83845C7.68361 7.99106 7.7185 8.27338 7.56588 8.46902C7.47725 8.58258 7.34497 8.64193 7.21132 8.64193Z" fill="#414042"/>
<path d="M23.3842 8.6419C23.2505 8.6419 23.1183 8.58256 23.0296 8.46901C22.877 8.27335 22.9119 7.99108 23.1075 7.83844L26.4654 5.21906C26.6609 5.06647 26.9432 5.10136 27.096 5.29694C27.2486 5.4926 27.2137 5.77487 27.018 5.92751L23.6602 8.54689C23.5781 8.61089 23.4808 8.6419 23.3842 8.6419Z" fill="#414042"/>
<path d="M27.3708 23.3155C27.2742 23.3155 27.1768 23.2845 27.0947 23.2205L23.7369 20.6011C23.5413 20.4485 23.5064 20.1662 23.659 19.9705C23.8116 19.7749 24.094 19.7401 24.2896 19.8926L27.6475 22.512C27.8431 22.6647 27.8779 22.9469 27.7253 23.1426C27.6368 23.2562 27.5045 23.3155 27.3708 23.3155Z" fill="#414042"/>
<path d="M3.4496 23.3155C3.31592 23.3155 3.18366 23.2562 3.09506 23.1426C2.94243 22.947 2.97732 22.6647 3.17294 22.512L6.53078 19.8927C6.72635 19.7401 7.00871 19.7749 7.16136 19.9705C7.31398 20.1662 7.27909 20.4485 7.08348 20.6011L3.72564 23.2205C3.64357 23.2845 3.54621 23.3155 3.4496 23.3155Z" fill="#414042"/>
<path opacity="0.6" d="M22.679 14.8343C22.679 16.0586 22.3783 17.304 21.774 18.3727C20.8614 19.9838 20.0867 22.6618 19.7386 24.486C19.6864 24.7599 19.6265 25.0697 19.5317 25.3632H18.6679C18.7632 25.0697 18.8226 24.7599 18.8752 24.486C19.2229 22.6618 19.9976 19.9838 20.9103 18.3727C21.5145 17.304 21.8152 16.0586 21.8152 14.8343C21.8152 10.8928 18.6579 7.9024 14.7717 7.67882C14.9144 7.67066 15.1229 7.63965 15.268 7.63965C19.3552 7.63962 22.679 10.7477 22.679 14.8343Z" fill="#F2C33D"/>
</svg>
